<?xml version="1.0" encoding="utf-8"?>
<!-- Generator: Adobe Illustrator 24.2.3, SVG Export Plug-In . SVG Version: 6.00 Build 0)  -->
<svg version="1.1" id="Layer_1" xmlns="http://www.w3.org/2000/svg" xmlns:xlink="http://www.w3.org/1999/xlink" x="0px" y="0px"
	 viewBox="0 0 2328.6 573.1" style="enable-background:new 0 0 2328.6 573.1;" xml:space="preserve">
<style type="text/css">
	.st0{fill:#FFFFFF;}
	.st1{fill:#E31D42;}
</style>
<g>
	<rect x="1466.6" y="52.1" class="st0" width="52" height="46"/>
	<path class="st0" d="M831.6,180.1c-35-20.5-72.1-32.4-113.3-32.4c-116.7,0-212.4,95.6-212.4,212.3c0,113.9,89.8,208,203.1,213
		h169.6V0h-47V180.1L831.6,180.1z M831.6,522.1H709c-85.6-5-154.2-75.7-154.2-162.3c0-89.4,74.1-162.3,163.5-162.3
		c43.6,0,83.2,17.1,113.2,45.1L831.6,522.1L831.6,522.1z"/>
	<rect x="1359.6" y="0.1" class="st0" width="51" height="573"/>
	<rect x="1466.6" y="151.1" class="st0" width="52" height="422"/>
	<path class="st0" d="M1252.5,360.7c0,89.2-46.6,161.9-135.8,161.9s-135.8-72.3-135.8-161.5v-210h-49.6v209.7
		c0.1,117.4,69.3,211.3,185.4,211.3s185.3-93.5,185.4-210.9V151.1h-49.5L1252.5,360.7L1252.5,360.7z"/>
	<polygon class="st0" points="1894.8,151.1 1632.6,496.3 1632.6,151.1 1580.6,151.1 1580.6,573.1 1630.6,573.1 1951.9,151.1 	"/>
	<path class="st0" d="M2277.2,387.1h49.9c1-10,1.5-17.9,1.5-26.3c0-116.7-95-212.4-211.7-212.4c-116.7,0-211.6,94.6-211.6,211.3
		s94.9,211.8,211.6,211.8c88.7,0,164.9-55.1,196.3-131.9l-52.2-4.5l0,0c-27,51-81.4,88.5-144,88.5c-81,0-148.3-64.5-160.2-136.5
		h320.5L2277.2,387.1z M1956.9,336.1c12.3-77,79.4-136.5,160-136.5c80.6,0,147.6,59.5,160,136.5H1956.9z"/>
</g>
<path class="st0" d="M462.4,374.4l-51.2,11.4l0,0c-9.7,57.4-49.8,110.1-109.3,129.4c-77,25-160.7-14.5-194.3-79.6L408,338l21.4-21.4
	l30.4,4.6c-2.3-10.1-4.2-17.7-6.8-25.7c-36.1-111-156-173-267-136.9C83.5,191.6,22.3,296.4,44,401.9L0,416.2l15.9,49.1l44.4-14.4
	c44.8,94,154.3,143.3,256.3,110.1C401.1,533.6,456.3,457.1,462.4,374.4z"/>
<circle class="st1" cx="333" cy="246.5" r="27.7"/>
</svg>
