<svg width="69" height="73" viewBox="0 0 69 73" fill="none" xmlns="http://www.w3.org/2000/svg">
<g opacity="0.5">
<path d="M63.9545 41.9395L28.6828 59.6408C27.9148 58.7604 26.6224 58.4607 25.5359 59.004L23.2132 60.1654C21.9207 60.821 21.415 62.3757 22.0518 63.6682L25.5359 70.6176C26.1915 71.9101 27.7463 72.4158 29.0387 71.7789L31.3615 70.6176C32.4479 70.0744 32.9911 68.8568 32.7289 67.7142L68.0005 50.0128C68.0005 50.0128 64.1793 50.0128 62.9243 47.5215C61.7255 45.1051 63.9545 41.9395 63.9545 41.9395Z" stroke="#5CB7B0" stroke-width="1.25" stroke-miterlimit="10" stroke-linecap="round" stroke-linejoin="round"/>
<path d="M22.0503 63.6677L1.78271 23.301C1.12711 22.0085 1.6516 20.4538 2.94408 19.7982L5.2668 18.6368C6.35324 18.0936 7.64572 18.3933 8.41372 19.2737L43.6854 1.57227L63.953 41.939" stroke="#5CB7B0" stroke-width="1.25" stroke-miterlimit="10" stroke-linecap="round" stroke-linejoin="round"/>
<path d="M8.41406 19.2734L25.1789 52.6532" stroke="#5CB7B0" stroke-width="1.25" stroke-miterlimit="10" stroke-linecap="round" stroke-linejoin="round"/>
<path d="M38.3317 10.5238L17.0234 21.2256L21.6976 30.5322L43.0058 19.8304L38.3317 10.5238Z" stroke="#5CB7B0" stroke-width="1.25" stroke-miterlimit="10" stroke-linecap="round" stroke-linejoin="round"/>
<path d="M28.4375 32.8164L40.7629 26.6162" stroke="#5CB7B0" stroke-width="1.25" stroke-miterlimit="10" stroke-linecap="round" stroke-linejoin="round"/>
<path d="M35.332 35.196L38.5539 33.5664" stroke="#5CB7B0" stroke-width="1.25" stroke-miterlimit="10" stroke-linecap="round" stroke-linejoin="round"/>
</g>
</svg>
