<svg width="65" height="81" viewBox="0 0 65 81" fill="none" xmlns="http://www.w3.org/2000/svg">
<g opacity="0.5">
<path d="M43.2629 31.0984L39.6875 29.2129" stroke="#5CB7B0" stroke-width="1.25" stroke-miterlimit="1" stroke-linecap="round" stroke-linejoin="round"/>
<path d="M45.7844 26.3191L42.209 24.4336" stroke="#5CB7B0" stroke-width="1.25" stroke-miterlimit="1" stroke-linecap="round" stroke-linejoin="round"/>
<path d="M48.3059 21.5603L44.7305 19.6748" stroke="#5CB7B0" stroke-width="1.25" stroke-miterlimit="1" stroke-linecap="round" stroke-linejoin="round"/>
<path d="M50.8216 16.8001L47.25 14.8955" stroke="#5CB7B0" stroke-width="1.25" stroke-miterlimit="1" stroke-linecap="round" stroke-linejoin="round"/>
<path d="M60.3061 15.0584C59.5695 16.4603 56.6096 16.3658 53.718 14.8353C50.8264 13.3048 49.0764 10.9298 49.8168 9.50885C50.5535 8.10696 53.5133 8.20147 56.405 9.732C59.3157 11.2663 61.0657 13.6412 60.3061 15.0584Z" stroke="#5CB7B0" stroke-width="1.25" stroke-miterlimit="1" stroke-linecap="round" stroke-linejoin="round"/>
<path d="M31.4808 39.7866L8.61976 53.0354C7.81025 53.5092 7.70358 54.2425 7.72281 54.6436C7.72294 55.0407 7.87214 55.7854 8.68194 56.2053L44.9515 75.3616C45.7766 75.8043 46.4525 75.5024 46.7961 75.2732C47.1359 75.063 47.6743 74.5549 47.6014 73.6268L45.6524 47.2828" stroke="#5CB7B0" stroke-width="1.25" stroke-miterlimit="1" stroke-linecap="round" stroke-linejoin="round"/>
<path d="M45.6326 47.2787C44.9303 48.608 41.1949 48.0211 37.2796 45.9486C33.3642 43.8761 30.7739 41.1348 31.4762 39.8055C32.1785 38.4761 35.9139 39.063 39.8292 41.1355C43.7293 43.1851 46.3387 45.9302 45.6326 47.2787Z" stroke="#5CB7B0" stroke-width="1.25" stroke-miterlimit="1" stroke-linecap="round" stroke-linejoin="round"/>
<path d="M49.8172 9.50893L38.4852 30.9574L6.53251 49.4606C2.48879 51.8107 2.60916 57.6732 6.73843 59.8678L43.008 79.0241C47.1411 81.1997 52.0514 77.9899 51.71 73.3345L48.9936 36.5108L60.3256 15.0623" stroke="#5CB7B0" stroke-width="1.25" stroke-miterlimit="1" stroke-linecap="round" stroke-linejoin="round"/>
</g>
</svg>
