<svg width="38" height="35" viewBox="0 0 38 35" fill="none" xmlns="http://www.w3.org/2000/svg">
<path opacity="0.35" d="M37.7125 9.97172C38.0111 9.40311 37.6676 8.89827 37.2195 8.70121C37.1482 8.51106 37.0313 8.33521 36.7928 8.20998C32.209 5.78429 27.6322 3.38136 23.0484 0.955672C22.795 0.822612 22.5461 0.825626 22.3334 0.904816C21.9442 0.776822 21.4976 0.866818 21.254 1.33068C18.9883 5.79116 16.6699 10.2431 14.2998 14.6488C13.3422 16.4366 12.3845 18.2244 11.4049 19.9815C7.06216 11.1925 -4.32026 20.086 3.53374 26.0993C6.62639 28.4674 9.41424 26.7434 11.3676 23.8559C14.5502 19.1705 17.1806 13.8707 19.734 8.64502C24.1194 10.8329 28.4183 13.1854 32.623 15.7174C31.4525 17.947 30.2819 20.1765 29.0964 22.3983C28.1388 24.186 27.1812 25.9738 26.2016 27.731C21.8588 18.9419 10.4764 27.8355 18.3304 33.8487C21.423 36.2168 24.2109 34.4928 26.1643 31.6054C30.6923 24.9731 34.0782 17.1113 37.7125 9.97172ZM5.94117 22.4194C6.07856 22.3388 6.23085 22.2661 6.391 22.1784C6.32815 22.2981 6.26531 22.4178 6.17345 22.4841C6.08319 22.4749 6.01571 22.4586 5.94117 22.4194ZM4.11343 23.6549C4.2609 23.8087 4.43113 23.9553 4.60922 24.087C4.05199 24.0617 3.89668 23.9229 4.11343 23.6549ZM20.5841 6.95347C21.2542 5.56832 21.9315 4.20595 22.6009 2.85856C26.9689 5.15187 31.3291 7.46016 35.6972 9.75348C34.9657 11.1828 34.2343 12.6122 33.488 14.0337C29.2833 11.5017 24.9922 9.13422 20.5841 6.95347ZM20.7299 30.1838C20.8673 30.1033 21.0196 30.0305 21.1798 29.9428C21.1169 30.0625 21.0541 30.1822 20.9622 30.2485C20.872 30.2393 20.7896 30.2151 20.7299 30.1838ZM18.8873 31.4115C19.0348 31.5653 19.205 31.7119 19.3831 31.8436C18.8408 31.8261 18.6705 31.6795 18.8873 31.4115Z" fill="white"/>
</svg>
