<svg width="70" height="60" viewBox="0 0 70 60" fill="none" xmlns="http://www.w3.org/2000/svg">
<g opacity="0.35">
<path d="M17.8604 26.4307C16.8584 27.3733 16.1936 27.4625 15.2015 26.8375C14.7748 26.5696 14.3978 26.2224 13.9613 25.9644C13.1874 25.4882 12.7607 25.6866 12.6119 26.5498C12.5623 26.8176 12.5921 27.1153 12.5028 27.3633C12.2547 27.9983 12.0167 28.6432 11.6694 29.2286C11.2229 29.9826 10.5482 30.4291 9.59578 30.2703C9.45688 30.2505 9.318 30.2505 9.17909 30.2604C8.12741 30.32 7.73051 30.8656 8.20674 31.7883C8.90125 33.1178 8.2762 34.1893 7.65114 35.2609C7.4031 35.6875 7.02611 36.0447 6.68878 36.4217C5.88514 37.3245 5.87523 37.3246 6.20264 38.535C5.35931 39.1104 4.4961 39.6958 3.623 40.2811C2.81936 40.8169 2.00579 41.3329 1.20215 41.8587C0.973955 42.0075 0.725934 42.1563 0.537425 42.3448C0.0711132 42.8409 0.249686 43.5751 0.894585 43.7735C1.15254 43.8529 1.43035 43.8728 1.70816 43.9025C2.35306 43.9521 2.98804 43.972 3.63294 44.0414C3.99011 44.0811 4.33739 44.1803 4.65488 44.2399C4.893 44.8054 4.57551 45.1923 4.40684 45.5991C4.21833 46.0654 3.95046 46.5019 3.73219 46.9583C3.56352 47.3155 3.57345 47.6727 3.86117 47.9803C4.12905 48.268 4.57549 48.3077 5.00211 48.0795C5.24023 47.9505 5.45849 47.7719 5.67677 47.6132C7.84958 46.0654 10.2307 44.8649 12.5524 43.5652C12.7012 43.4759 12.8897 43.4461 13.0782 43.3866C13.7231 43.8231 13.9712 44.3787 13.9216 45.1526C13.7628 47.6727 13.6438 50.1927 13.5148 52.7128C13.495 53.0799 13.4751 53.447 13.4751 53.8141C13.485 54.2407 13.5644 54.6475 14.0009 54.8559C14.4375 55.0543 14.8145 54.9055 15.1419 54.6178C15.7968 54.0423 16.4416 53.457 17.0766 52.8617C17.5727 52.3953 18.049 51.9092 18.4954 51.4726C19.18 51.6512 19.309 52.1969 19.5868 52.5938C19.8249 52.9311 20.0035 53.3181 20.2813 53.6058C20.7377 54.0721 21.5611 53.8141 21.6703 53.1692C21.7298 52.822 21.6504 52.4449 21.6405 52.0779C21.5711 50.5202 21.5016 48.9625 21.452 47.4048C21.4421 47.0973 21.5016 46.7797 21.5314 46.363C22.0176 46.5615 22.4243 46.6607 22.7517 46.879C24.8055 48.2085 27.0974 49.0518 29.2702 50.1431C32.8717 51.9588 36.4037 53.9133 39.777 56.1258C40.6204 56.6814 41.4935 57.1775 42.3467 57.7133C42.9619 58.1002 43.5671 58.5169 44.1822 58.9237C44.3707 59.0527 44.5394 59.2114 44.7477 59.3106C45.3133 59.5885 45.8193 59.4297 46.1665 58.884C46.236 58.7649 46.2955 58.636 46.355 58.5169C47.7143 55.5504 49.4505 52.7922 51.0578 49.9546C54.4212 44.0612 57.7846 38.158 61.1678 32.2745C63.9856 27.3832 66.833 22.5117 69.6706 17.6403C70.2262 16.6977 70.0873 16.0429 69.1844 15.4079C66.5552 13.5724 63.9062 11.7568 61.2869 9.90144C58.5188 7.93698 55.7904 5.91301 53.0322 3.93863C51.1571 2.59922 49.1926 1.42847 46.9106 0.882783C43.0809 -0.029997 39.2612 -0.0101442 35.4811 1.14075C34.2111 1.52769 32.9709 2.02375 31.7506 2.54959C30.5104 3.07543 29.4785 3.84933 28.7741 5.0796C28.159 6.15112 27.2759 7.0639 26.631 8.11558C25.5 9.95106 24.478 11.8461 23.3966 13.7113C21.7595 16.529 20.1027 19.3269 18.4656 22.1446C17.9795 22.978 17.4933 23.8114 17.0469 24.6547C16.5805 25.5774 16.7294 25.9049 17.8604 26.4307ZM10.3498 42.6028C9.70493 43.1981 7.69083 44.4482 6.59946 44.9145C6.60938 44.6169 6.62925 44.3589 6.61932 44.1009C6.59948 43.0592 6.36139 42.7615 5.33947 42.454C5.01206 42.3547 4.69456 42.2655 4.33739 42.1663C4.45644 42.0075 4.49611 41.9182 4.56556 41.8686C5.83552 40.9856 7.11538 40.1026 8.39526 39.2295C8.60361 39.0906 8.87152 39.0211 9.10964 38.9219C9.81406 39.666 9.80411 40.4101 9.50646 41.2535C9.16913 42.2059 9.28823 42.3349 10.3598 42.6226C10.4391 42.6127 10.5185 42.6028 10.6078 42.5829C10.5185 42.6028 10.4391 42.6028 10.3498 42.6028ZM22.2259 44.4383C22.4044 43.3866 22.97 42.7119 23.6446 42.1563C24.2498 41.6603 24.9444 41.2733 25.7976 41.442C25.8869 41.4618 25.9762 41.4321 26.0655 41.4122C26.4723 41.3428 26.7203 41.0054 26.6013 40.6185C26.5219 40.3605 26.3631 40.1323 26.254 39.8843C25.5595 38.3465 25.7778 37.1658 26.9783 36.0347C27.1073 35.9058 27.266 35.8066 27.3751 35.6577C27.6529 35.2906 27.5438 34.8243 27.137 34.606C26.9783 34.5167 26.7997 34.4572 26.6211 34.4076C25.8671 34.1893 25.4702 33.6437 25.3512 32.9293C25.252 32.3539 25.2718 31.7487 25.2817 31.1534C25.2817 30.8855 25.4107 30.6176 25.4405 30.3497C25.5 29.8239 25.1825 29.4667 24.6368 29.4667C24.4185 29.4667 24.1903 29.5262 23.9721 29.5957C23.0097 29.9032 22.1664 29.6056 21.3826 29.0599C20.5888 28.4944 20.2217 27.6709 19.9539 26.778C19.6463 25.756 19.6463 25.766 18.8526 25.0516C19.1998 24.4365 19.557 23.8015 19.934 23.1864C22.2358 19.3864 24.6269 15.6361 26.7203 11.7072C27.6034 10.0404 28.6947 8.51245 29.9944 7.13336C31.1751 5.88325 31.8002 5.70464 33.4074 6.36938C35.1635 7.09366 36.5129 8.314 37.376 9.99073C37.8424 10.8936 38.9238 10.8142 39.2909 9.96097C39.529 9.41529 39.7572 8.85969 40.0053 8.32393C40.8387 6.50829 42.0094 4.96055 43.5473 3.66083C44.8172 2.57938 46.1863 2.38093 47.6448 2.98614C48.9048 3.51198 50.1847 4.07752 51.3257 4.83156C53.5382 6.29995 55.6515 7.92707 57.8045 9.47483C59.3324 10.5761 60.8504 11.6675 62.3882 12.7489C64.184 14.009 65.9996 15.2492 67.8053 16.5092C67.9046 16.5786 67.9443 16.7374 68.0038 16.8366C64.1344 23.5138 60.3444 30.2207 56.4055 36.8285C52.4667 43.4263 48.895 50.2424 44.966 56.9096C42.8726 56.0762 41.1859 54.7071 39.3306 53.6355C37.4654 52.5541 35.61 51.4528 33.7249 50.4309C31.8299 49.399 29.9051 48.4466 27.9903 47.4544C26.0953 46.4623 24.2002 45.4701 22.2259 44.4383ZM8.90126 36.5507C9.76443 35.1319 10.3696 33.7131 10.2605 32.0364C11.2328 31.7586 12.1853 31.5105 12.7607 30.6474C13.2866 29.8536 13.7926 29.05 14.3085 28.2563C16.4813 28.9805 16.65 28.9806 18.7931 28.0876C19.7158 30.1314 21.3726 31.193 23.5256 31.3518C23.6744 32.1653 23.7042 32.9194 23.9523 33.594C24.2102 34.3084 24.6765 34.9434 25.0833 35.6676C24.3788 36.8681 24.1308 38.1976 24.4979 39.6363C22.5831 40.4399 21.3627 41.8488 20.6682 43.7041C19.7455 43.4858 18.9021 43.1187 18.0687 43.1485C17.2056 43.1782 16.3424 43.585 15.4693 43.8331C14.5069 42.325 13.2866 41.1344 11.4214 40.7376C11.4214 38.912 10.5482 37.5924 8.90126 36.5507ZM38.15 7.52028C37.7035 7.1135 37.3165 6.74642 36.9098 6.38925C36.5327 6.06184 36.1656 5.71458 35.7489 5.42686C35.2925 5.11929 34.7964 4.89107 34.3202 4.62319C33.8737 4.36523 33.2983 4.36525 32.822 3.99816C35.6695 2.52977 40.293 1.64675 42.1384 2.16267C41.4339 2.98615 40.6799 3.77989 40.0251 4.65298C39.3504 5.55584 38.7849 6.53805 38.15 7.52028ZM19.9142 49.5479C18.3069 49.2899 17.9993 49.399 16.8683 50.5896C16.5806 50.8873 16.3126 51.1948 16.0348 51.4925C15.8662 51.6711 15.6678 51.8397 15.3305 52.1572C15.3602 51.6314 15.3801 51.3238 15.39 51.0162C15.4495 49.8356 15.5983 48.645 15.5487 47.4643C15.509 46.6409 15.8364 46.0654 16.3325 45.5197C17.1262 44.6367 18.2771 44.4482 19.3189 45.0038C19.6661 45.1923 19.8844 45.4404 19.8844 45.8571C19.8943 47.0774 19.9043 48.3077 19.9142 49.5479Z" fill="white"/>
<path d="M49.5636 39.6465C48.9484 39.2993 48.244 38.8627 47.5197 38.4758C42.1423 35.5985 36.864 32.5328 31.6453 29.3777C29.7999 28.2665 27.9941 27.0859 26.1686 25.935C25.9702 25.8159 25.7916 25.6671 25.5931 25.5579C25.1863 25.3496 24.8589 25.3992 24.591 25.677C24.3033 25.9746 24.3132 26.3914 24.6605 26.7882C24.8688 27.0263 25.1268 27.2347 25.3847 27.4133C26.8134 28.4054 28.2223 29.4372 29.7006 30.3599C35.6536 34.0805 41.7652 37.5233 47.9661 40.8172C48.2539 40.9661 48.5317 41.1248 48.8392 41.224C49.3552 41.4026 49.8017 41.224 50.0001 40.7875C50.1787 40.4204 50.0596 40.0335 49.5636 39.6465Z" fill="white"/>
<path d="M27.585 22.7989C29.5792 24.0986 31.4643 25.4082 33.4189 26.5988C38.717 29.8035 44.0448 32.9585 49.3628 36.1235C49.8688 36.431 50.4045 36.6989 50.9502 36.9271C51.3074 37.076 51.6844 36.9866 51.9423 36.6592C52.1209 36.431 52.1011 35.8953 51.8332 35.6373C51.5058 35.3198 51.1387 35.0321 50.7517 34.8039C47.7158 32.9982 44.6599 31.2223 41.6339 29.4165C37.3875 26.8766 33.1113 24.3764 29.0236 21.5785C28.6466 21.3206 28.2597 21.0527 27.8331 20.894C27.6247 20.8146 27.2477 20.8741 27.0889 21.013C26.9302 21.1618 26.8111 21.5488 26.8905 21.7472C27.0492 22.1341 27.3667 22.4715 27.585 22.7989Z" fill="white"/>
<path d="M39.8971 12.9472C40.9785 13.6615 42.2188 14.5346 43.5086 15.3184C46.6438 17.2234 49.8087 19.0787 52.9539 20.9539C53.9361 21.5392 54.8985 22.1643 55.8807 22.7596C56.3867 23.0672 56.9224 23.3449 57.4582 23.6029C57.8352 23.7815 58.242 23.841 58.6587 23.6525C59.125 23.4442 59.254 22.8588 58.8869 22.5214C58.6885 22.3429 58.4305 22.2238 58.2023 22.0651C54.7298 19.6541 50.9596 17.7691 47.3482 15.5962C45.3043 14.366 43.3101 13.0662 41.2961 11.7963C41.0679 11.6475 40.8297 11.4987 40.5817 11.3796C39.9368 11.082 39.5697 11.1712 39.282 11.6673C39.0736 12.0344 39.1629 12.3023 39.6293 12.719C39.6689 12.7587 39.6987 12.7785 39.8971 12.9472Z" fill="white"/>
<path d="M34.2505 20.8742C35.57 21.787 36.9392 22.799 38.3679 23.7019C41.8107 25.8846 45.2733 28.0276 48.7359 30.1707C49.2816 30.508 49.8471 30.8255 50.4027 31.1232C50.6012 31.2323 50.8195 31.3216 51.0377 31.3513C51.5636 31.4307 51.9505 30.9743 51.762 30.4981C51.6529 30.2104 51.4545 29.9425 51.2362 29.7342C50.9385 29.4564 50.5913 29.2182 50.2341 29.0099C48.4383 27.8987 46.6326 26.8271 44.8467 25.6961C42.2572 24.059 39.6776 22.3922 37.0881 20.7452C36.3142 20.2492 35.5304 19.7729 34.7367 19.3265C34.5085 19.1975 34.2108 19.128 33.9628 19.1479C33.7643 19.1578 33.4865 19.3066 33.4072 19.4654C33.3278 19.6241 33.4072 19.9218 33.5163 20.0904C33.7147 20.3583 33.9628 20.5666 34.2505 20.8742Z" fill="white"/>
<path d="M29.2793 35.3603C30.2218 35.9755 31.2834 36.7097 32.3748 37.3744C34.2202 38.4856 36.0854 39.5671 37.9507 40.6386C38.3872 40.8866 38.8436 41.1049 39.3198 41.2735C39.677 41.4025 40.054 41.3232 40.312 40.9858C40.5402 40.6882 40.4806 40.212 40.1036 39.8746C39.8357 39.6266 39.5281 39.4182 39.2107 39.2396C37.0279 37.9796 34.8353 36.7394 32.6426 35.4893C31.8886 35.0528 31.1544 34.5865 30.4004 34.1698C30.0829 33.9912 29.7257 33.8622 29.3785 33.7828C29.051 33.7034 28.7236 33.7927 28.5748 34.14C28.4558 34.4178 28.545 34.6757 28.7534 34.894C28.8824 35.0032 29.0213 35.1222 29.2793 35.3603Z" fill="white"/>
<path d="M43.796 42.0276C43.3297 41.8292 42.9229 41.601 42.4962 41.4918C42.278 41.4422 41.9208 41.5613 41.7918 41.73C41.6629 41.8986 41.6529 42.2558 41.7224 42.484C41.9307 43.0991 42.9824 43.615 43.6472 43.4861C43.9647 43.4265 44.1234 43.1586 44.0936 42.8908C44.0639 42.603 43.8952 42.3153 43.796 42.0276Z" fill="white"/>
<path d="M21.0655 32.1057C18.2676 29.4567 14.8149 30.2702 13.0787 32.1553C11.0249 34.3876 10.9356 38.2372 13.4259 40.4497C15.5888 42.3745 18.972 42.8309 21.5516 40.0032C23.7443 37.5923 23.2581 33.8817 21.0655 32.1057ZM14.6264 39.0408C13.1779 37.761 12.6421 35.4889 14.3684 33.5344C15.7376 31.9866 18.4363 31.7882 19.8253 33.078C21.4723 34.596 21.5616 37.2054 20.0237 38.8722C18.6049 40.4299 16.2039 40.4993 14.6264 39.0408Z" fill="white"/>
</g>
</svg>
