<svg width="97" height="96" viewBox="0 0 97 96" fill="none" xmlns="http://www.w3.org/2000/svg">
<g opacity="0.5">
<path d="M33.3542 80.955C40.8938 84.1752 53.3839 71.8523 61.2517 53.431C69.1195 35.0098 69.3856 17.4659 61.846 14.2457C54.3064 11.0255 41.8162 23.3484 33.9484 41.7697C26.0806 60.1909 25.8146 77.7348 33.3542 80.955Z" stroke="#5CB7B0" stroke-width="1.25" stroke-miterlimit="1" stroke-linecap="round" stroke-linejoin="round"/>
<path d="M55.0459 62.1944C73.6349 54.7321 86.2283 42.5149 83.174 34.9067C80.1198 27.2984 62.5745 27.1802 43.9855 34.6425C25.3965 42.1049 12.8031 54.322 15.8574 61.9303C18.9116 69.5385 36.4569 69.6568 55.0459 62.1944Z" stroke="#5CB7B0" stroke-width="1.25" stroke-miterlimit="1" stroke-linecap="round" stroke-linejoin="round"/>
<path d="M41.7704 61.2523C60.1917 69.1201 77.7355 69.3862 80.9557 61.8466C84.1759 54.307 71.853 41.8168 53.4318 33.949C35.0105 26.0812 17.4667 25.8152 14.2465 33.3548C11.0263 40.8944 23.3492 53.3845 41.7704 61.2523Z" stroke="#5CB7B0" stroke-width="1.25" stroke-miterlimit="1" stroke-linecap="round" stroke-linejoin="round"/>
<path d="M53.203 18.3674C52.6561 19.6479 51.1736 20.2601 49.8725 19.7044C48.5713 19.1487 47.9797 17.675 48.5355 16.3738C49.0824 15.0933 50.5649 14.4811 51.866 15.0368C53.1671 15.5925 53.7499 17.0869 53.203 18.3674Z" fill="#5CB7B0" stroke="#5CB7B0" stroke-width="1.0609" stroke-miterlimit="1" stroke-linecap="round" stroke-linejoin="round"/>
<path d="M85.8104 35.6154C85.2635 36.8959 83.781 37.5082 82.4799 36.9524C81.1788 36.3967 80.5871 34.923 81.1429 33.6219C81.6898 32.3414 83.1723 31.7291 84.4735 32.2849C85.7746 32.8406 86.3662 34.3143 85.8104 35.6154Z" fill="#5CB7B0" stroke="#5CB7B0" stroke-width="1.0609" stroke-miterlimit="1" stroke-linecap="round" stroke-linejoin="round"/>
<path d="M41.8476 61.0168C41.3007 62.2973 39.8181 62.9095 38.517 62.3538C37.2365 61.8069 36.6243 60.3244 37.18 59.0232C37.7269 57.7428 39.2094 57.1305 40.5105 57.6862C41.8117 58.2419 42.4033 59.7156 41.8476 61.0168Z" fill="#5CB7B0" stroke="#5CB7B0" stroke-width="1.0609" stroke-miterlimit="1" stroke-linecap="round" stroke-linejoin="round"/>
<path d="M52.8459 49.8402C51.611 52.7316 48.2509 54.0805 45.3595 52.8455C42.4681 51.6106 41.1193 48.2506 42.3542 45.3592C43.5891 42.4677 46.9492 41.1189 49.8406 42.3538C52.732 43.5887 54.0809 46.9488 52.8459 49.8402Z" stroke="#5CB7B0" stroke-width="1.25" stroke-miterlimit="1" stroke-linecap="round" stroke-linejoin="round"/>
</g>
</svg>
