<svg width="49" height="73" viewBox="0 0 49 73" fill="none" xmlns="http://www.w3.org/2000/svg">
<g opacity="0.6">
<path d="M19.8567 53.7736C31.7326 53.7736 41.3851 44.1211 41.3851 32.2453C41.3851 22.1224 34.3622 13.6137 24.9342 11.3262L14.7793 53.1643C16.4041 53.5598 18.1037 53.7736 19.8567 53.7736Z" stroke="white" stroke-width="1.25" stroke-miterlimit="10" stroke-linecap="round" stroke-linejoin="round"/>
<path d="M26.3981 5.26562L24.923 11.3265C34.351 13.614 41.3739 22.1227 41.3739 32.2455C41.3739 44.1214 31.7214 53.7739 19.8455 53.7739C18.0925 53.7739 16.4036 53.5601 14.7681 53.1646L13.293 59.2255C15.3881 59.7386 17.5794 60.0165 19.8348 60.0165C35.142 60.0165 47.5951 47.5634 47.5951 32.2562C47.6165 19.1832 38.5626 8.21589 26.3981 5.26562Z" stroke="white" stroke-width="1.25" stroke-miterlimit="10" stroke-linecap="round" stroke-linejoin="round"/>
<path d="M11.0703 68.4499L27.4357 1" stroke="white" stroke-width="1.25" stroke-miterlimit="10" stroke-linecap="round" stroke-linejoin="round"/>
<path d="M15.2383 66.9967L16.9272 60.0059" stroke="white" stroke-width="1.25" stroke-miterlimit="10" stroke-linecap="round" stroke-linejoin="round"/>
<path d="M24.2921 13.9231C22.8704 13.5811 21.3846 13.3887 19.8453 13.3887C9.4339 13.3887 1 21.8225 1 32.234C1 41.1168 7.13569 48.5566 15.3986 50.5449" stroke="white" stroke-width="1.25" stroke-miterlimit="10" stroke-linecap="round" stroke-linejoin="round"/>
<path d="M24.2912 13.9225C23.3399 13.698 22.3351 13.6231 21.2875 13.7407C14.1577 14.5317 7.73343 23.4573 6.93172 33.6764C6.25829 42.3882 9.89268 49.2187 15.3977 50.5549" stroke="white" stroke-width="1.25" stroke-miterlimit="10" stroke-linecap="round" stroke-linejoin="round"/>
<path d="M24.291 13.9225C23.8206 13.8049 23.2968 13.8583 22.7303 14.0935C18.8715 15.6862 14.4568 25.1036 12.8747 35.1195C11.5172 43.671 12.6609 49.8922 15.4081 50.5549" stroke="white" stroke-width="1.25" stroke-miterlimit="10" stroke-linecap="round" stroke-linejoin="round"/>
<path d="M24.2939 13.9229C24.2939 13.9229 24.2512 14.0832 24.1657 14.4359C23.5884 16.8196 21.1833 26.7287 18.7996 36.5522C16.7686 44.9327 15.4004 50.5553 15.4004 50.5446" stroke="white" stroke-width="1.25" stroke-miterlimit="10" stroke-linecap="round" stroke-linejoin="round"/>
<path d="M24.2939 13.9229C24.7643 14.0404 25.2132 14.3184 25.6087 14.7887C28.3024 17.9741 27.9176 28.3642 24.7322 37.9953C22.0171 46.2154 18.1582 51.2287 15.4004 50.5553" stroke="white" stroke-width="1.25" stroke-miterlimit="10" stroke-linecap="round" stroke-linejoin="round"/>
<path d="M24.293 13.9229C25.2444 14.158 26.1636 14.5535 27.0509 15.1414C33.0262 19.1179 34.651 29.9996 30.6746 39.4383C27.286 47.4981 20.9152 51.9021 15.4102 50.5553" stroke="white" stroke-width="1.25" stroke-miterlimit="10" stroke-linecap="round" stroke-linejoin="round"/>
<path d="M24.2939 13.9229C25.7156 14.2649 27.1266 14.7887 28.4842 15.4835C37.7411 20.2509 41.3648 31.6244 36.5974 40.8707C32.5247 48.7595 23.6633 52.5649 15.4004 50.5446" stroke="white" stroke-width="1.25" stroke-miterlimit="10" stroke-linecap="round" stroke-linejoin="round"/>
<path d="M38.0603 37.1091L1.44922 28.1621" stroke="white" stroke-width="1.25" stroke-miterlimit="10" stroke-linecap="round" stroke-linejoin="round"/>
<path d="M10.2988 71.7099H32.1799C32.1799 71.7099 26.7177 66.75 19.7696 66.75C12.8215 66.75 11.496 66.75 11.496 66.75L10.2988 71.7099Z" stroke="white" stroke-width="1.25" stroke-miterlimit="10" stroke-linecap="round" stroke-linejoin="round"/>
</g>
</svg>
