<svg width="60" height="51" viewBox="0 0 60 51" fill="none" xmlns="http://www.w3.org/2000/svg">
<g opacity="0.3">
<path d="M35.586 29.7198C35.8852 30.0254 36.1481 30.2947 36.4171 30.5657C37.7913 31.935 39.1733 33.2999 40.538 34.6798C42.1372 36.2883 43.6956 37.9253 45.3137 39.5126C46.4903 40.6633 47.7299 41.7521 48.941 42.8727C49.2408 43.1521 49.5293 43.4481 49.8291 43.7274C50.5513 44.3919 50.7068 45.2254 50.555 46.1465C50.411 46.9906 50.0075 47.6981 49.3725 48.2636C48.2986 49.2304 47.0425 49.607 45.6187 49.3646C45.1451 49.2884 44.7349 49.0516 44.4123 48.6869C43.8256 48.0329 43.2406 47.3727 42.6462 46.7231C41.3757 45.3359 40.0897 43.9576 38.8192 42.5704C37.1865 40.7945 35.5616 39.0142 33.9367 37.2339C33.282 36.5152 32.6412 35.7937 31.9786 35.0794C31.642 34.7176 31.2881 34.3708 30.9421 34.0196C30.1864 34.3742 29.5065 34.7166 28.8061 35.0137C24.796 36.7174 20.7254 36.7302 16.669 35.2374C13.314 34.0014 10.649 31.8524 8.67926 28.8444C6.83678 26.0227 5.96593 22.9249 6.04775 19.5722C6.13442 15.9109 7.41848 12.6942 9.76659 9.8791C12.3996 6.71965 15.7864 4.9321 19.7942 4.3023C23.4367 3.73127 26.8818 4.41828 30.1166 6.1687C32.7137 7.57416 34.771 9.55789 36.2708 12.0886C38.0581 15.1128 38.8186 18.3982 38.4758 21.9106C38.2135 24.5945 37.3552 27.0702 35.8246 29.3035C35.756 29.4101 35.7075 29.5156 35.586 29.7198ZM37.4929 33.0073C36.6162 34.364 35.5992 35.4121 34.397 36.3176C34.5081 36.4665 34.5857 36.5932 34.6823 36.6985C37.0122 39.231 39.3342 41.768 41.6719 44.296C42.7525 45.4602 43.8505 46.6092 44.9406 47.7628C45.1656 48.002 45.4022 48.1983 45.7353 48.2823C47.2076 48.6369 48.4375 48.1871 49.2674 46.9298C49.5957 46.4259 49.6986 45.8541 49.6664 45.2455C49.6394 44.7635 49.2817 44.5277 49.0004 44.2533C47.9477 43.2286 46.8605 42.234 45.8156 41.2048C43.7393 39.1698 41.6757 37.1119 39.6089 35.0663C38.9346 34.395 38.2537 33.7483 37.4929 33.0073ZM36.9592 24.2137C37.1122 23.4577 37.3322 22.7463 37.3998 22.0132C37.7121 18.8551 37.1615 15.8642 35.5835 13.088C33.8553 10.0403 31.4011 7.77074 28.1777 6.43871C25.1852 5.20249 22.0594 4.81984 18.8432 5.52005C15.627 6.22026 12.9564 7.84676 10.7497 10.2389C9.35593 11.7515 8.40411 13.5293 7.77706 15.4944C7.07594 17.6832 6.84455 19.9142 7.16602 22.1968C7.43706 24.0833 8.0472 25.838 9.00037 27.4948C9.69278 28.705 10.4917 29.8386 11.4997 30.7853C13.9075 33.0555 16.6915 34.5976 20.0238 35.0693C22.3084 35.3944 24.5571 35.2944 26.7362 34.6021C31.9612 32.939 35.3878 29.455 36.9592 24.2137ZM34.9706 30.528C34.4081 31.0934 33.9102 31.5907 33.4184 32.0897C32.9345 32.5842 32.3177 32.9371 31.8154 33.4991C32.4763 34.2195 33.1087 34.8992 33.7244 35.5677C34.992 34.9305 36.3841 33.3516 36.6791 32.219C36.2214 31.6 35.6175 31.1061 34.9706 30.528Z" fill="#5CB7B0"/>
<path d="M38.7804 36.1523C38.9516 36.0803 39.1306 35.9312 39.2377 35.9736C39.4458 36.0566 39.6244 36.2238 39.7908 36.3877C40.8044 37.3623 41.818 38.3369 42.8221 39.322C44.1784 40.6601 45.5253 42.0088 46.8721 43.3575C47.0596 43.5404 47.2282 43.7445 47.3734 43.962C47.4811 44.1231 47.4321 44.3273 47.2665 44.4273C47.1634 44.4915 46.967 44.5105 46.8632 44.4559C46.6406 44.3294 46.4313 44.1538 46.2499 43.9726C44.8316 42.5715 43.4211 41.166 42.0123 39.7543C41.1008 38.8404 40.1972 37.9221 39.2952 36.9977C39.1501 36.8527 39.0144 36.6972 38.8944 36.5327C38.8408 36.439 38.834 36.3185 38.7804 36.1523Z" fill="#5CB7B0"/>
<path d="M48.5615 44.7993C48.6178 44.8344 48.7556 44.8851 48.8634 44.9737C49.0559 45.1382 49.1224 45.3541 49.0417 45.6023C48.9709 45.8138 48.7423 45.9757 48.4946 45.9413C48.3283 45.9224 48.1504 45.8739 48.0025 45.7875C47.7296 45.6276 47.6195 45.2813 47.7326 45.0352C47.8535 44.7847 48.1441 44.6857 48.5615 44.7993Z" fill="#5CB7B0"/>
<path d="M36.0988 23.8611C34.6434 28.9428 31.3421 32.2566 26.3162 33.842C24.3842 34.45 22.3944 34.5677 20.386 34.3178C16.3708 33.8118 13.0868 31.9755 10.5675 28.8312C8.69185 26.4949 7.69124 23.777 7.5557 20.7869C7.38344 16.963 8.65292 13.6303 11.2007 10.7838C14.2982 7.32229 18.247 5.81944 22.7936 6.06795C27.3542 6.31367 31.0706 8.35333 33.8368 12.0197C36.0263 14.9226 36.8515 18.2124 36.5718 21.808C36.5552 22.0144 36.5447 22.2224 36.4974 22.4205C36.3733 22.9009 36.2307 23.3762 36.0988 23.8611ZM8.98082 16.4221C8.35008 18.7883 8.26196 19.8388 8.50457 21.7571C8.99927 25.5832 10.9322 28.581 14.0067 30.8481C15.8138 32.177 17.8593 32.9446 20.0869 33.2608C23.7177 33.7743 27.0689 33.0383 30.055 30.9307C33.1382 28.7573 34.9456 25.749 35.4294 21.9849C35.5211 21.2847 35.6021 20.5751 35.5549 19.8767C35.3832 17.1405 34.4954 14.6379 32.8061 12.4644C30.9879 10.1107 28.6257 8.54496 25.7556 7.73097C22.8365 6.90362 19.9547 6.95654 17.0923 8.00354C15.1536 8.70862 13.4478 9.79349 12.0026 11.2525C10.4738 12.8008 9.38984 14.6284 8.98082 16.4221Z" fill="#5CB7B0"/>
<path d="M24.9388 8.58246C26.39 9.06308 27.767 9.47738 29.0248 10.2086C30.3909 11.0022 31.5356 12.052 32.5036 13.291C32.6449 13.4745 32.7794 13.6824 32.8443 13.9044C32.8845 14.0472 32.8383 14.2653 32.748 14.3792C32.6008 14.5567 32.3543 14.5423 32.1891 14.3985C32.0116 14.2513 31.8676 14.0539 31.7341 13.866C31.2724 13.213 30.7382 12.6326 30.1271 12.1169C29.0354 11.187 27.8039 10.5289 26.4364 10.104C25.5364 9.8261 24.6398 9.53599 23.7493 9.24752C23.5852 9.19629 23.4028 9.14004 23.2738 9.03245C23.1767 8.95329 23.1047 8.78207 23.1119 8.65878C23.119 8.46297 23.279 8.33513 23.4732 8.34841C23.8537 8.37944 24.2274 8.43502 24.6074 8.49227C24.7474 8.5106 24.8836 8.56743 24.9388 8.58246Z" fill="#5CB7B0"/>
<path d="M33.495 17.0549C33.1501 16.9413 32.9239 16.4645 33.0543 16.1308C33.1551 15.8814 33.4892 15.7679 33.8 15.8855C34.1415 16.0114 34.3263 16.3254 34.2445 16.6261C34.1576 16.9452 33.7907 17.1552 33.495 17.0549Z" fill="#5CB7B0"/>
</g>
</svg>
