<svg width="54" height="57" viewBox="0 0 54 57" fill="none" xmlns="http://www.w3.org/2000/svg">
<g opacity="0.35">
<path d="M31.7937 39.3623C31.5317 39.3473 31.3221 39.3473 31.1274 39.3174C30.6184 39.2425 30.0944 39.1976 29.6003 39.0554C28.687 38.7859 27.9983 38.2469 27.7737 37.2513C27.7513 37.1539 27.6989 37.0566 27.6315 36.8844C27.085 36.6374 26.4861 36.3679 25.8948 36.0909C24.8018 35.5744 23.7089 35.0504 22.6084 34.5413C22.3314 34.4141 22.032 34.3018 21.7326 34.2793C17.3683 33.9874 13.3109 32.7372 9.56043 30.484C8.04827 29.5707 6.56606 28.6125 5.2635 27.4072C3.22733 25.5208 1.62532 23.3349 0.52489 20.7822C0.165564 19.9438 -0.0141073 19.0679 0.000864577 18.1546C0.0158365 16.7772 0.644665 15.7741 1.83493 15.1228C3.13 14.4116 4.51489 14.2694 6.04203 14.5763C5.95968 14.232 5.88483 13.94 5.81746 13.6556C5.72014 13.2513 5.57041 12.8546 5.52549 12.4503C5.45063 11.8514 5.65277 11.552 6.19925 11.305C6.35645 11.2301 6.5286 11.1852 6.6858 11.1253C9.61281 9.95003 12.5473 8.81216 15.4519 7.58446C18.0719 6.46906 20.7669 5.58571 23.4468 4.65746C25.7076 3.87892 27.9609 3.08543 30.2291 2.33683C32.5647 1.56578 34.9078 0.839628 37.2584 0.09852C37.9172 -0.111086 38.2016 -0.00626581 38.5235 0.607581C38.823 1.184 39.0999 1.77539 39.4443 2.47907C39.6389 2.23952 39.7512 2.08978 39.8785 1.94755C40.1555 1.64062 40.41 1.29629 40.7393 1.04925C42.6707 -0.447939 44.7818 0.0461157 46.1442 1.28878C46.8479 1.93257 47.2971 2.74856 47.6115 3.64687C48.1355 5.16652 48.3825 6.74604 48.3675 8.34055C48.3525 10.8034 48.1654 13.2438 47.5815 15.6543C46.9677 18.1696 45.9645 20.5127 44.4823 22.6387C43.7337 23.7167 42.9627 24.7872 42.1692 25.8352C41.8398 26.2694 41.4056 26.6287 41.0313 27.0329C40.8442 27.2351 40.6421 27.4372 40.5373 27.6767C39.6988 29.5782 38.7556 31.4272 37.7225 33.2238C37.6926 33.2762 37.7001 33.3586 37.6776 33.4709C37.8273 33.658 38.0145 33.8601 38.1567 34.0922C38.4936 34.6686 38.5535 35.26 38.2391 35.8738C37.8947 36.5401 37.3932 37.0491 36.7868 37.4683C36.42 37.7229 36.0457 37.9699 35.619 38.2544C35.7388 38.4789 35.8286 38.7035 35.9634 38.8832C37.3557 40.7397 39.1449 42.1321 41.1062 43.3523C42.7306 44.3629 44.3925 44.4003 46.1816 43.9661C47.3644 43.6817 48.5098 43.3223 49.6401 42.8882C50.269 42.6486 50.9277 42.6037 51.579 42.8133C52.2453 43.0229 52.7244 43.4197 52.949 44.1084C53.2559 45.0591 53.0612 45.8227 52.2527 46.3991C51.8335 46.6985 51.3619 46.9455 50.8828 47.1252C48.8392 47.8888 46.773 48.5925 44.7369 49.371C42.8279 50.0971 40.9415 50.8832 39.0476 51.6467C36.8617 52.5226 34.6833 53.4059 32.4974 54.2893C31.1798 54.8208 29.8848 55.3972 28.5523 55.8987C27.8785 56.1533 27.1674 56.3554 26.4562 56.4677C25.2959 56.6473 24.435 56.0559 24.0831 54.933C23.7013 53.7353 24.0158 52.7247 25.0488 52.021C25.4681 51.7291 25.9546 51.5195 26.4337 51.3248C27.4294 50.9206 28.4325 50.5388 29.4356 50.1645C29.7575 50.0447 29.9596 49.8201 30.1093 49.5506C31.1649 47.6567 31.9509 45.6804 32.1081 43.4871C32.1829 42.4465 32.3027 41.4209 32.0782 40.3879C31.9883 40.0285 31.8835 39.7066 31.7937 39.3623ZM36.3751 32.7672C40.2004 27.1153 41.8473 20.9094 41.3832 14.1571C41.1137 10.1521 39.1523 3.70676 37.2434 1.54332C36.3451 1.81282 35.4169 2.06733 34.4961 2.37425C31.7712 3.28754 29.0613 4.22328 26.3439 5.15902C23.1699 6.25197 19.9434 7.20269 16.8592 8.55015C13.6852 9.94254 10.4887 11.2526 7.19484 12.3455C7.07507 12.383 6.97778 12.4878 6.85052 12.5701C6.97778 12.9669 7.0676 13.3412 7.21732 13.6855C7.95095 15.3998 8.66959 17.129 9.45561 18.8209C10.3764 20.7972 11.4693 22.6911 12.8093 24.4129C14.4936 26.5763 16.3652 28.5601 18.5061 30.2818C19.8386 31.3448 21.2759 32.2432 22.7507 33.0741C24.1655 33.8676 25.6552 34.5339 27.1 35.275C27.624 35.5445 27.9833 35.507 28.4699 35.0803C30.6034 33.2163 33.0813 32.3405 35.9484 32.7672C36.0607 32.7822 36.1655 32.7672 36.3751 32.7672ZM19.1723 32.4977C19.1274 32.4153 19.1125 32.3405 19.0601 32.3031C17.3832 31.1802 15.931 29.7953 14.4712 28.4179C12.6746 26.7185 11.1699 24.7797 9.9048 22.6612C8.90917 20.9993 8.0408 19.2625 7.28472 17.4734C6.8131 16.358 5.92227 15.8415 4.75447 15.8115C4.02833 15.7966 3.30967 15.9762 2.64342 16.2981C2.04455 16.5901 1.65528 17.0542 1.56545 17.7279C1.52053 18.0648 1.51302 18.4166 1.54297 18.761C1.6328 19.7416 2.00709 20.6399 2.47122 21.5008C3.4369 23.2825 4.65715 24.877 6.16183 26.2245C8.47498 28.2981 11.1175 29.8851 13.9697 31.0828C15.6315 31.779 17.3383 32.348 19.1723 32.4977ZM41.8697 23.6792C41.982 23.5894 42.0419 23.5595 42.0869 23.5071C44.2802 20.7148 45.755 17.6007 46.3988 14.0897C46.7731 12.0386 46.9527 9.98747 46.9003 7.90637C46.8629 6.51399 46.5484 5.16651 46.0319 3.87144C45.74 3.1453 45.2758 2.56141 44.6246 2.12723C43.4193 1.33372 41.982 1.5508 41.1211 2.70364C40.8367 3.08542 40.657 3.54207 40.4399 3.97625C40.2902 4.27569 40.3276 4.56763 40.4399 4.87455C41.1137 6.69364 41.5703 8.57262 42.0195 10.4516C42.783 13.693 42.8504 16.9494 42.4387 20.2357C42.2815 21.3661 42.0644 22.4815 41.8697 23.6792ZM50.7705 43.9736C50.5759 43.9811 50.3663 43.9512 50.1717 43.9961C49.8348 44.071 49.4979 44.1683 49.176 44.2806C46.0469 45.396 42.9252 46.5114 39.8036 47.6268C37.3033 48.5251 34.7955 49.4159 32.2952 50.3367C30.5435 50.9805 28.8068 51.6692 27.0775 52.3654C26.6358 52.545 26.1942 52.7696 25.8049 53.0541C25.2734 53.4359 25.1686 54.0497 25.4681 54.6261C25.6926 55.0528 26.0669 55.2025 26.7257 55.0304C27.3246 54.8806 27.9309 54.701 28.5073 54.4689C31.1723 53.4134 33.8373 52.3429 36.4948 51.25C39.9459 49.8276 43.3519 48.2855 46.8703 47.0279C48.1355 46.5712 49.3706 46.0323 50.6208 45.5157C50.8379 45.4259 51.055 45.2986 51.2346 45.1414C51.564 44.8645 51.5191 44.4228 51.1598 44.1683C51.04 44.1009 50.9128 44.0485 50.7705 43.9736ZM31.8236 49.0791C32.1605 48.9892 32.3551 48.9593 32.5498 48.8919C33.2984 48.6149 34.032 48.323 34.7881 48.0535C37.1012 47.23 39.4218 46.4215 41.7425 45.6056C41.8847 45.5532 42.1018 45.5606 42.0719 45.2762C38.8903 43.8613 36.1729 41.8626 34.2865 38.7859C33.9122 38.8907 33.5603 38.9955 33.1786 39.1003C33.9197 42.5962 33.1711 45.8302 31.8236 49.0791ZM35.4917 34.1745C35.342 34.1521 35.3046 34.1446 35.2746 34.1371C33.2235 33.8901 31.367 34.4291 29.6677 35.552C29.473 35.6792 29.3083 35.8813 29.1885 36.0834C28.7618 36.7871 29.0089 37.4908 29.7949 37.7304C30.2141 37.8576 30.6783 37.925 31.1199 37.925C32.9091 37.91 34.5036 37.2887 35.9484 36.2781C36.2029 36.0984 36.435 35.8888 36.6446 35.6567C37.0338 35.2151 36.9739 34.8632 36.4424 34.5638C36.113 34.3767 35.7388 34.2719 35.4917 34.1745Z" fill="white"/>
<path d="M22.6969 22.4963C20.7805 21.7627 18.8791 21.0365 16.9776 20.3104C16.6782 20.1981 16.3788 20.0933 16.3713 19.704C16.3638 19.3447 16.5734 19.1351 16.8729 18.9854C16.9028 18.9704 16.9328 18.9554 16.9627 18.9405C17.8161 18.4838 18.677 18.0347 19.5304 17.578C20.2041 17.2187 20.8629 16.8444 21.5516 16.515C22.0457 16.283 22.2927 15.9311 22.3301 15.3921C22.4649 13.6704 22.9215 11.986 22.8991 10.2418C22.8991 10.1744 22.899 10.0996 22.914 10.0322C22.9664 9.79264 23.0113 9.49319 23.2808 9.45576C23.5354 9.41833 23.8273 9.48572 24.0594 9.59052C24.2241 9.67287 24.3288 9.89743 24.4561 10.0621C25.4293 11.2748 26.4099 12.4876 27.3681 13.6703C27.8023 13.835 28.1542 13.6479 28.5135 13.5506C29.9808 13.1388 31.4405 12.7047 32.9003 12.2854C33.1623 12.2106 33.4393 12.1507 33.7088 12.0833C34.0306 12.001 34.345 12.0085 34.5621 12.2854C34.7717 12.5549 34.7268 12.8544 34.5846 13.1688C34.2627 13.8575 33.9633 14.5537 33.6713 15.2574C33.2596 16.2455 32.8703 17.2486 32.4661 18.2368C32.2939 18.6485 32.3014 18.9854 32.5709 19.3971C33.5366 20.8344 34.4499 22.3016 35.3856 23.7614C35.4979 23.9336 35.6251 24.1057 35.715 24.2854C35.962 24.7795 35.73 25.1987 35.1685 25.2286C34.8616 25.2436 34.5472 25.1912 34.2477 25.1238C32.5933 24.7496 30.9464 24.3603 29.292 23.986C29.1273 23.9485 28.9552 23.9486 28.7007 23.9261C28.1242 24.6298 27.5179 25.3334 26.9564 26.0671C26.3501 26.8606 25.7811 27.6915 25.1823 28.4925C24.9053 28.8668 24.6957 29.4432 24.1193 29.3459C23.4455 29.2336 23.5204 28.5823 23.4605 28.0883C23.2434 26.4114 23.0488 24.7271 22.8392 23.0428C22.8092 22.908 22.7643 22.7733 22.6969 22.4963ZM24.0669 11.8213C23.9845 12.4352 23.9321 12.8095 23.8872 13.1763C23.7674 14.1345 23.6401 15.1002 23.5428 16.0584C23.4829 16.6722 23.1835 17.0615 22.6445 17.3459C21.5441 17.9299 20.4661 18.5512 19.3807 19.1725C19.2234 19.2623 19.0887 19.4046 18.909 19.5543C19.0812 19.6441 19.1711 19.6965 19.2609 19.734C20.6009 20.3029 21.9259 20.8868 23.2733 21.4333C23.715 21.6129 23.9246 21.9124 23.977 22.3615C24.0743 23.1176 24.1791 23.8737 24.2914 24.6223C24.4112 25.3933 24.4412 26.1793 24.6882 27.0477C25.0475 26.5761 25.3394 26.1943 25.6314 25.8125C26.2827 24.9591 26.934 24.1058 27.5703 23.2449C28.0119 22.646 28.5359 22.4813 29.292 22.6685C30.6844 23.0203 32.0993 23.3197 33.5515 23.4919C33.5366 23.3871 33.5441 23.3122 33.5141 23.2598C32.8179 22.1444 32.1367 21.0141 31.4106 19.9211C31.0737 19.4121 30.9913 18.933 31.2009 18.364C31.7175 16.9717 32.2116 15.5643 32.7131 14.1644C32.7655 14.0147 32.8029 13.865 32.8853 13.6105C32.4361 13.7377 32.1068 13.8276 31.7849 13.9174C30.9914 14.1569 30.1978 14.4264 29.3968 14.6285C28.7605 14.7858 28.1018 14.8531 27.458 14.9804C27.0313 15.0627 26.7244 14.9055 26.4624 14.5836C25.9608 13.9623 25.4442 13.356 24.9277 12.7496C24.7106 12.5026 24.4711 12.263 24.0669 11.8213Z" fill="white"/>
</g>
</svg>
