<svg width="62" height="70" viewBox="0 0 62 70" fill="none" xmlns="http://www.w3.org/2000/svg">
<g opacity="0.6">
<path d="M36.014 28.896C36.3933 28.5815 36.7276 28.3052 37.0644 28.0221C38.7676 26.5744 40.4664 25.1173 42.1808 23.6814C44.1801 21.9982 46.2081 20.3643 48.1848 18.6573C49.6182 17.4157 50.9864 16.0958 52.3885 14.8116C52.7377 14.494 53.1051 14.1908 53.4544 13.8732C54.2862 13.1071 55.258 13.0078 56.3013 13.2697C57.2569 13.5154 58.031 14.0461 58.6199 14.8291C59.6279 16.1543 59.941 17.6325 59.5271 19.2444C59.3946 19.781 59.0835 20.2295 58.6341 20.5653C57.8272 21.1767 57.0135 21.7857 56.211 22.4065C54.4972 23.7334 52.7921 25.0791 51.0782 26.4059C48.8836 28.1118 46.6847 29.8084 44.4857 31.5049C43.5981 32.1884 42.7085 32.8555 41.8253 33.5484C41.3778 33.9005 40.9459 34.2739 40.5097 34.6378C40.845 35.5394 41.1735 36.3526 41.448 37.1853C43.0229 41.9521 42.6503 46.6278 40.5501 51.1438C38.8116 54.8788 36.0902 57.7346 32.4487 59.7103C29.0332 61.5576 25.393 62.2628 21.5508 61.8499C17.3548 61.402 13.7832 59.6214 10.7739 56.6572C7.39638 53.3331 5.66595 49.2738 5.32406 44.6117C5.01491 40.3746 6.1316 36.4839 8.44942 32.9358C10.3104 30.0873 12.7841 27.9136 15.8329 26.4321C19.4758 24.6674 23.3207 24.1067 27.3215 24.8346C30.3786 25.3912 33.1397 26.6123 35.5587 28.5825C35.6746 28.6713 35.7911 28.737 36.014 28.896ZM39.9706 27.0191C41.445 28.1549 42.5519 29.4224 43.4773 30.8891C43.6588 30.7757 43.8116 30.6987 43.9418 30.5978C47.0716 28.1633 50.2058 25.7382 53.3311 23.2943C54.7708 22.1642 56.1948 21.0127 57.6232 19.8707C57.9193 19.6351 58.1672 19.3821 58.2954 19.0076C58.8426 17.3506 58.4432 15.8955 57.0783 14.8229C56.5309 14.3979 55.884 14.2254 55.1821 14.2044C54.6261 14.1896 54.3213 14.5779 53.9795 14.8748C52.7026 15.9861 51.4571 17.14 50.1758 18.242C47.6414 20.4326 45.0819 22.6064 42.5363 24.7852C41.7013 25.4956 40.8938 26.216 39.9706 27.0191ZM29.8219 26.7953C28.9683 26.5477 28.1723 26.2274 27.337 26.08C23.7401 25.4208 20.2532 25.7685 16.9152 27.3164C13.251 29.011 10.4113 31.6132 8.575 35.188C6.87071 38.5067 6.13389 42.0598 6.63195 45.8196C7.13001 49.5794 8.74365 52.8009 11.2807 55.5625C12.885 57.3069 14.8359 58.5691 17.0328 59.4761C19.4796 60.4895 22.0195 60.9675 24.6711 60.8155C26.8632 60.6837 28.9362 60.15 30.9295 59.2131C32.385 58.5332 33.7628 57.7236 34.9458 56.6562C37.7819 54.1072 39.8175 51.057 40.6763 47.2754C41.267 44.6829 41.3661 42.0912 40.7784 39.523C39.3658 33.3647 35.6911 29.0984 29.8219 26.7953ZM36.8835 29.6796C37.4793 30.3794 38.003 30.9984 38.5292 31.6106C39.051 32.2134 39.3975 32.9552 39.9951 33.5855C40.8852 32.8951 41.7259 32.2335 42.5521 31.5902C41.941 30.0739 40.2604 28.3251 38.9879 27.8786C38.2336 28.3453 37.6089 28.9918 36.8835 29.6796Z" fill="white"/>
<path d="M43.7044 25.8409C43.638 25.6374 43.4839 25.4177 43.5427 25.2987C43.6578 25.0676 43.8668 24.8784 44.0709 24.703C45.2864 23.6318 46.502 22.5606 47.7288 21.5013C49.3945 20.0711 51.0713 18.6528 52.7482 17.2345C52.976 17.0366 53.2265 16.8624 53.49 16.7164C53.6853 16.608 53.9152 16.6837 54.0142 16.8834C54.0781 17.008 54.0813 17.2353 54.0087 17.3493C53.8422 17.5929 53.6207 17.8165 53.3954 18.0076C51.6515 19.5029 49.9032 20.9889 48.1481 22.4723C47.0121 23.432 45.8716 24.3823 44.7242 25.3302C44.5439 25.483 44.3524 25.624 44.1521 25.7462C44.0394 25.7988 43.9004 25.7951 43.7044 25.8409Z" fill="white"/>
<path d="M54.5645 15.4304C54.6102 15.369 54.6815 15.2156 54.7936 15.1003C55.0007 14.8949 55.2549 14.839 55.5324 14.9554C55.7685 15.0567 55.9326 15.3347 55.8695 15.6158C55.832 15.805 55.7594 16.0047 55.6462 16.1663C55.4365 16.4644 55.0284 16.5579 54.7566 16.4046C54.4804 16.2419 54.3944 15.8988 54.5645 15.4304Z" fill="white"/>
<path d="M29.334 27.7486C35.0309 29.9033 38.5222 34.0095 39.8645 39.9317C40.3789 42.2082 40.3247 44.5043 39.8466 46.7868C38.8835 51.3493 36.4625 54.9457 32.6121 57.5395C29.7507 59.4711 26.5345 60.3615 23.0881 60.2326C18.6806 60.0666 14.9743 58.2918 11.9481 55.0952C8.26791 51.209 6.91787 46.5315 7.63584 41.3342C8.35192 36.1206 11.0477 32.047 15.521 29.2193C19.0629 26.9813 22.9191 26.3467 27.0213 27.01C27.2568 27.0488 27.4947 27.0806 27.7176 27.1538C28.2575 27.342 28.7897 27.5509 29.334 27.7486ZM18.2115 58.1809C20.8686 59.1303 22.0666 59.3314 24.2925 59.2353C28.7331 59.0313 32.3595 57.0969 35.2553 53.7821C36.9533 51.8335 38.0294 49.5576 38.6044 47.0296C39.5395 42.9092 39.0131 38.9909 36.8771 35.3614C34.6747 31.6141 31.3921 29.2524 27.1158 28.3387C26.3205 28.1668 25.5133 28.0062 24.7068 27.994C21.5485 27.9308 18.5903 28.7122 15.9336 30.4452C13.0578 32.3092 11.0351 34.8728 9.82734 38.0911C8.59953 41.3645 8.3861 44.6788 9.31605 48.0652C9.94125 50.3586 11.0247 52.4207 12.5626 54.219C14.1952 56.1218 16.1906 57.5405 18.2115 58.1809Z" fill="white"/>
<path d="M10.7275 39.1121C11.4175 37.4913 12.0243 35.9495 12.9836 34.5747C14.0249 33.0815 15.3393 31.8669 16.8542 30.8732C17.0783 30.7285 17.3299 30.5937 17.591 30.5404C17.7588 30.5078 18.0049 30.5816 18.1271 30.6961C18.3169 30.882 18.2769 31.1638 18.096 31.3398C17.9101 31.5296 17.6698 31.6762 17.4413 31.8116C16.6475 32.2796 15.9302 32.8378 15.2799 33.4905C14.1082 34.6556 13.2352 36.0072 12.6172 37.5371C12.2125 38.5442 11.794 39.5462 11.3781 40.5413C11.3036 40.7248 11.2217 40.929 11.0859 41.0668C10.9857 41.1707 10.7822 41.2372 10.6414 41.2172C10.4172 41.1904 10.2856 40.9945 10.3193 40.7728C10.3912 40.3388 10.4906 39.9149 10.5924 39.4841C10.6268 39.325 10.705 39.1741 10.7275 39.1121Z" fill="white"/>
<path d="M21.2716 30.0911C21.1083 30.4763 20.5392 30.6906 20.1685 30.5092C19.8917 30.3697 19.7932 29.9752 19.9577 29.6295C20.1347 29.2494 20.5129 29.067 20.8504 29.1896C21.2087 29.3197 21.4148 29.7611 21.2716 30.0911Z" fill="white"/>
</g>
</svg>
