<svg width="77" height="56" viewBox="0 0 77 56" fill="none" xmlns="http://www.w3.org/2000/svg">
<g opacity="0.5">
<path d="M59.029 26.9939L60.8695 31.2465" stroke="#5CB7B0" stroke-width="1.25" stroke-miterlimit="1" stroke-linecap="round" stroke-linejoin="round"/>
<path d="M53.1591 29.5332L55.024 33.8059" stroke="#5CB7B0" stroke-width="1.25" stroke-miterlimit="1" stroke-linecap="round" stroke-linejoin="round"/>
<path d="M47.3103 32.0749L49.1529 36.3498" stroke="#5CB7B0" stroke-width="1.25" stroke-miterlimit="1" stroke-linecap="round" stroke-linejoin="round"/>
<path d="M41.4392 34.615L43.2818 38.8899" stroke="#5CB7B0" stroke-width="1.25" stroke-miterlimit="1" stroke-linecap="round" stroke-linejoin="round"/>
<path d="M35.5654 37.1797L37.4281 41.4301" stroke="#5CB7B0" stroke-width="1.25" stroke-miterlimit="1" stroke-linecap="round" stroke-linejoin="round"/>
<path d="M29.6943 39.7197L31.5592 43.9925" stroke="#5CB7B0" stroke-width="1.25" stroke-miterlimit="1" stroke-linecap="round" stroke-linejoin="round"/>
<path d="M23.8454 42.2615L25.6881 46.5364" stroke="#5CB7B0" stroke-width="1.25" stroke-miterlimit="1" stroke-linecap="round" stroke-linejoin="round"/>
<path d="M17.9783 44.823L19.8187 49.0756" stroke="#5CB7B0" stroke-width="1.25" stroke-miterlimit="1" stroke-linecap="round" stroke-linejoin="round"/>
<path d="M25.6625 6.34867C6.99289 14.4604 -1.59056 36.1829 6.52121 54.8526L74.1642 25.4677C66.0525 6.79803 44.3545 -1.76531 25.6625 6.34867Z" stroke="#5CB7B0" stroke-width="1.25" stroke-miterlimit="1" stroke-linecap="round" stroke-linejoin="round"/>
<path d="M15.4339 38.0275C16.2031 28.9905 21.8225 20.9581 30.3924 17.2483C36.5227 14.5911 43.311 14.4803 49.5199 16.926C51.7931 17.8261 53.9167 19.0338 55.7972 20.5132L15.4339 38.0275Z" stroke="#5CB7B0" stroke-width="1.0609" stroke-miterlimit="1" stroke-linecap="round" stroke-linejoin="round"/>
</g>
</svg>
