<svg width="77" height="66" viewBox="0 0 77 66" fill="none" xmlns="http://www.w3.org/2000/svg">
<g opacity="0.5">
<path d="M55.8772 61.545C40.0642 70.211 15.6437 62.5771 5.01089 48.4C-0.325002 41.292 -1.2987 27.6017 8.0878 23.0058C12.8395 20.6689 15.8969 24.6611 20.4733 24.4274C25.1276 24.1743 27.2308 19.5005 28.4967 15.703C31.6125 6.19969 37.6884 0.0653601 48.4186 1.11696C57.5714 2.03224 67.3864 8.03026 72.0407 15.9952C81.1545 31.6328 70.697 53.4243 55.8772 61.545Z" stroke="#5CB7B0" stroke-width="1.25" stroke-miterlimit="1" stroke-linecap="round" stroke-linejoin="round"/>
<path d="M23.0077 34.9824C23.0077 37.9229 20.6124 40.3183 17.6718 40.3183C14.7313 40.3183 12.3359 37.9229 12.3359 34.9824C12.3359 32.0418 14.7313 29.6465 17.6718 29.6465C20.6124 29.666 23.0077 32.0418 23.0077 34.9824Z" stroke="#5CB7B0" stroke-width="1.25" stroke-miterlimit="1" stroke-linecap="round" stroke-linejoin="round"/>
<path d="M37.6483 53.8525C37.6483 56.7931 35.253 59.1884 32.3124 59.1884C29.3719 59.1884 26.9766 56.7931 26.9766 53.8525C26.9766 50.9119 29.3719 48.5166 32.3124 48.5166C35.2725 48.5166 37.6483 50.9119 37.6483 53.8525Z" stroke="#5CB7B0" stroke-width="1.25" stroke-miterlimit="1" stroke-linecap="round" stroke-linejoin="round"/>
<path d="M51.8241 52.9179C51.8241 55.8585 49.4288 58.2538 46.4882 58.2538C43.5476 58.2538 41.1523 55.8585 41.1523 52.9179C41.1523 49.9774 43.5476 47.582 46.4882 47.582C49.4483 47.6015 51.8241 49.9774 51.8241 52.9179Z" stroke="#5CB7B0" stroke-width="1.25" stroke-miterlimit="1" stroke-linecap="round" stroke-linejoin="round"/>
<path d="M64.1718 45.2841C64.1718 48.2247 61.7765 50.6201 58.8359 50.6201C55.8953 50.6201 53.5 48.2247 53.5 45.2841C53.5 42.3436 55.8953 39.9482 58.8359 39.9482C61.7765 39.9677 64.1718 42.3436 64.1718 45.2841Z" stroke="#5CB7B0" stroke-width="1.25" stroke-miterlimit="1" stroke-linecap="round" stroke-linejoin="round"/>
<path d="M69.5078 32.6064C69.5078 35.547 67.1124 37.9423 64.1718 37.9423C61.2312 37.9423 58.8359 35.547 58.8359 32.6064C58.8359 29.6658 61.2312 27.2705 64.1718 27.2705C67.1124 27.29 69.5078 29.6658 69.5078 32.6064Z" stroke="#5CB7B0" stroke-width="1.25" stroke-miterlimit="1" stroke-linecap="round" stroke-linejoin="round"/>
<path d="M65.6757 20.0849C65.6757 23.0255 63.2804 25.4208 60.3398 25.4208C57.3993 25.4208 55.0039 23.0255 55.0039 20.0849C55.0039 17.1443 57.3993 14.749 60.3398 14.749C63.2804 14.749 65.6757 17.1443 65.6757 20.0849Z" stroke="#5CB7B0" stroke-width="1.25" stroke-miterlimit="1" stroke-linecap="round" stroke-linejoin="round"/>
</g>
</svg>
