<svg width="63" height="68" viewBox="0 0 63 68" fill="none" xmlns="http://www.w3.org/2000/svg">
<g opacity="0.35">
<path d="M36.8933 50.7193C36.3396 50.8527 35.9152 51.3093 35.4289 51.6136C34.5773 52.1371 33.7652 52.7383 32.949 53.3123C32.6568 53.5178 32.3388 53.7187 32.0906 53.9761C31.5725 54.5136 30.98 54.4634 30.4309 54.1644C29.8747 53.8552 29.3637 53.439 28.8799 53.0188C28.3349 52.5436 27.8433 52.0158 27.2704 51.4474C27.0715 51.6249 26.873 51.7495 26.727 51.9274C24.8961 54.1636 22.589 55.7333 19.9458 56.8465C19.354 57.0971 18.7819 57.3864 18.1957 57.6556C17.8206 57.829 17.4348 57.912 17.0293 57.7529C16.5909 57.5793 16.3974 57.2184 16.5953 56.7931C16.8951 56.1381 17.2621 55.5035 17.5862 54.8615C17.7068 54.6261 17.7788 54.3646 17.9279 53.9661C17.5502 54.1037 17.3248 54.1793 17.1136 54.2752C13.9555 55.7054 10.8297 57.2031 7.80283 58.8949C7.42031 59.1112 7.01655 59.2973 6.60569 59.4732C6.2523 59.6238 5.87691 59.6468 5.60576 59.3255C5.33312 59.0127 5.37019 58.6479 5.57029 58.3114C5.84282 57.8637 6.12395 57.4176 6.44348 57.0047C7.73914 55.3029 8.91503 53.5273 9.90145 51.6214C10.317 50.8096 10.7012 49.9747 11.1142 49.1271C10.9739 49.1204 10.8911 49.0882 10.8336 49.1136C10.4933 49.24 10.1253 49.4234 9.8299 49.089C9.56285 48.7949 9.59582 48.4028 9.73585 48.0558C10.0555 47.2362 10.3696 46.3979 10.7549 45.6074C11.8552 43.403 13.3938 41.5757 15.4263 40.1615C15.7185 39.956 16.0052 39.7319 16.3508 39.4738C16.1442 39.1372 15.9775 38.8252 15.7705 38.5415C15.0149 37.4992 14.2593 36.4568 13.4821 35.4372C13.0069 34.815 12.9183 34.2072 13.4099 33.5678C13.8075 33.0624 14.1965 32.5555 14.6253 32.0732C15.2867 31.322 15.9896 30.5868 16.6595 29.837C16.7809 29.699 16.8723 29.5293 17.0287 29.2913C16.7799 29.2479 16.6214 29.1938 16.471 29.1941C13.7752 29.2902 11.0824 29.3691 8.38919 29.5011C7.7116 29.5333 7.03734 29.6987 6.36495 29.8026C6.16569 29.8298 5.96154 29.9357 5.77425 29.8942C5.55114 29.8553 5.27695 29.7545 5.17365 29.5862C5.07035 29.4179 5.09845 29.1044 5.18433 28.916C5.2732 28.7105 5.48777 28.5445 5.68631 28.42C8.49947 26.5848 10.999 24.3679 13.5723 22.2345C16.2076 20.0501 18.9168 17.9492 21.6103 15.8368C22.2455 15.3374 22.9941 14.9992 23.8027 14.8749C24.8377 14.7193 25.8743 14.5551 26.9187 14.4983C29.4085 14.3663 31.9066 14.2889 34.399 14.1927C35.0136 14.1671 35.5759 14.0352 36.1308 13.7429C37.1933 13.1765 38.277 12.6403 39.3607 12.1041C43.7056 9.95234 48.317 8.75771 53.1266 8.25189C54.865 8.06853 56.5735 8.05677 58.2939 8.38308C60.2272 8.75535 60.6468 9.13795 60.9029 11.1189C61.0547 12.2771 61.1521 13.4435 61.152 14.6106C61.1471 16.0598 61.1477 17.5276 60.9096 18.945C60.357 22.2174 59.4071 25.3852 57.8103 28.3077C56.7855 30.1804 55.6808 32.0038 54.3695 33.694C53.8909 34.3091 53.634 34.9716 53.608 35.7805C53.5427 38.0326 53.327 40.2851 53.2889 42.5331C53.2502 44.4803 52.5184 46.0416 51.0785 47.3026C48.9914 49.1317 46.9043 50.9607 44.8001 52.7868C42.2707 54.972 39.7414 57.1573 37.205 59.3324C36.9643 59.5469 36.7291 59.78 36.4473 59.9254C36.2633 60.0171 35.9667 60.045 35.7783 59.9592C35.5086 59.8326 35.4177 59.5426 35.4715 59.2337C35.4984 59.0792 35.5526 58.9207 35.6138 58.7722C36.6579 56.2309 36.8782 53.546 37.0556 50.8537C37.0328 50.832 36.9843 50.8059 36.8933 50.7193ZM19.7894 28.3665C20.1602 28.5726 20.3598 28.6958 20.5694 28.8119C21.6692 29.4014 22.8066 29.9268 23.8601 30.579C26.7041 32.3213 29.1063 34.5701 31.2239 37.1319C33.8101 40.2527 36.0006 43.6141 37.6142 47.3436C37.6705 47.4772 37.7843 47.5855 37.8992 47.7381C38.9781 47.0773 39.8947 46.2821 40.7856 45.4824C44.2409 42.3976 47.6067 39.2175 50.6798 35.7389C52.5845 33.5863 54.2513 31.2772 55.6517 28.7715C56.296 27.6106 56.8591 26.4089 57.4222 25.2073C57.6201 24.782 57.8225 24.331 57.6962 23.7873C57.341 23.5928 56.996 23.3913 56.6479 23.2068C55.6123 22.655 54.6678 21.9864 53.7871 21.2052C51.0683 18.7951 48.9485 15.9411 47.3903 12.6546C47.1379 12.1243 46.9676 11.5288 46.4599 11.0424C41.9665 12.1692 37.8787 14.2155 33.9248 16.5592C28.6202 19.702 24.0396 23.7137 19.7894 28.3665ZM18.7798 55.7238C22.0629 54.6425 25.2023 52.2541 25.956 50.0601C25.1549 49.1777 24.4795 48.1317 23.4783 47.3825C22.2965 48.0253 21.1579 48.6227 20.032 49.2488C18.8687 49.886 17.7182 50.5521 16.5621 51.1994C16.3565 51.3139 16.1534 51.4642 15.9265 51.5484C15.4642 51.7154 14.9961 51.3067 15.1141 50.8321C15.1717 50.6034 15.2807 50.3837 15.3968 50.174C16.6695 47.8936 17.9423 45.6132 19.2079 43.3227C19.2848 43.1858 19.3132 43.0227 19.3804 42.8399C19.1861 42.585 19.022 42.3089 18.8061 42.0767C18.3443 41.5807 17.861 41.1074 17.4089 40.6573C15.115 41.5927 12.7406 44.5122 11.8111 46.8525C11.9977 46.7966 12.1399 46.7418 12.2791 46.7041C13.0265 46.5249 13.3925 46.8097 13.2739 47.5406C13.2152 47.9283 13.0677 48.3181 12.9075 48.6793C11.7209 51.3284 10.3246 53.8613 8.66302 56.242C8.49803 56.4785 8.19869 56.6739 8.30263 57.1429C8.88628 56.8379 9.40539 56.5482 9.94574 56.2887C12.8558 54.9125 15.7658 53.5363 18.6758 52.1601C18.9359 52.0374 19.2016 51.9334 19.4721 52.1574C19.7723 52.4131 19.9289 52.7322 19.8001 53.1164C19.6346 53.6093 19.4263 54.0946 19.2366 54.5744C19.085 54.937 18.9419 55.3011 18.7798 55.7238ZM32.2848 15.8225C32.1318 15.787 32.0177 15.7317 31.9016 15.738C30.6554 15.7861 29.4122 15.817 28.167 15.9095C27.0839 15.986 26.0018 16.1069 24.9268 16.2379C23.7429 16.3852 22.6532 16.7524 21.7862 17.6181C21.5611 17.8441 21.2891 18.0355 21.0428 18.2313C17.165 21.3044 13.2802 24.3675 9.40251 27.4407C9.2383 27.5712 9.09383 27.7406 8.92363 27.9054C9.04637 27.9622 9.07624 27.9939 9.11057 27.9999C11.7243 27.969 14.3323 27.9195 16.9486 27.9245C17.8508 27.9226 18.5997 27.7348 19.1496 26.9641C19.3594 26.6735 19.6475 26.4408 19.8957 26.1835C23.5442 22.3453 27.512 18.9076 32.0149 16.1026C32.1056 16.0388 32.1766 15.9362 32.2848 15.8225ZM37.6745 56.6379C37.7559 56.6786 37.8357 56.7279 37.917 56.7686C38.0958 56.6053 38.273 56.4505 38.4589 56.2972C41.0961 54.0512 43.7546 51.8354 46.372 49.5505C47.8306 48.2839 49.2082 46.9237 50.6 45.5835C51.3226 44.8872 51.7299 44.0209 51.7732 43.0116C51.7879 42.5721 51.8212 42.127 51.8445 41.689C51.911 40.2417 51.969 38.7929 52.027 37.3441C52.0296 37.1766 52.183 36.9557 51.8734 36.8045C51.6035 37.0846 51.315 37.3703 51.0522 37.6605C48.791 40.1843 46.3721 42.5479 43.8181 44.7731C42.2745 46.1221 40.6924 47.4379 39.1032 48.7437C38.7416 49.0432 38.456 49.3117 38.4465 49.8229C38.3985 51.8746 38.193 53.9166 37.7957 55.9429C37.7467 56.1731 37.7149 56.4063 37.6745 56.6379ZM58.2336 22.1745C58.7734 21.2076 59.372 18.8893 59.4241 17.0681C59.4913 14.7544 59.6932 12.4289 59.1369 10.1922C56.8876 9.34935 50.2303 9.70119 48.2398 10.6717C49.5405 15.0805 54.5659 20.8458 58.2336 22.1745ZM33.4468 51.0648C31.9524 46.7018 29.3567 43.1284 26.3968 39.8186C23.7408 36.8447 18.4629 32.8834 16.4487 32.2141C16.2151 32.4386 15.9512 32.6844 15.7116 32.9433C15.4734 33.1936 15.2595 33.4569 15.0068 33.74C21.9854 38.7492 27.8104 44.6449 31.34 52.6517C32.0629 52.1057 32.6936 51.632 33.4468 51.0648ZM36.5667 48.7879C36.2868 48.1114 36.0859 47.5901 35.8577 47.0729C34.6057 44.211 32.9063 41.6337 30.9912 39.178C28.1284 35.5138 24.6545 32.5653 20.5782 30.3342C20.0933 30.0729 19.5721 29.8671 19.1069 29.6446C18.4408 30.0679 17.9805 30.527 17.6916 31.069C19.1949 32.0826 20.6732 32.9856 22.0288 34.0353C23.3929 35.0864 24.7048 36.2346 25.9361 37.4394C27.1759 38.6458 28.3709 39.9062 29.4551 41.2445C30.5378 42.5914 31.5152 44.035 32.408 45.508C33.2851 46.9694 34.0054 48.5185 34.8343 50.1041C35.4333 49.6603 35.9647 49.2489 36.5667 48.7879ZM28.9289 51.4181C27.4081 46.9532 19.4835 37.9861 15.807 36.3021C15.9159 36.4891 15.9894 36.6256 16.0729 36.7551C17.0627 38.2804 18.2267 39.668 19.4758 40.9733C21.7581 43.3515 23.9236 45.8421 26.0689 48.3468C26.979 49.416 27.9741 50.4029 28.9289 51.4181ZM20.4797 43.8891C19.4888 45.6174 18.6212 47.1462 17.7043 48.7547C18.9775 48.3488 21.5293 46.9987 22.3377 46.3172C22.3881 46.2818 22.3717 46.1729 22.4027 46.0456C21.8119 45.3768 21.2055 44.6964 20.4797 43.8891Z" fill="white"/>
<path d="M48.5488 28.4272C47.8941 32.5394 43.6809 35.8636 38.8191 34.8926C35.1871 34.1712 31.5583 30.4885 32.4909 25.3902C33.2954 20.9768 37.6286 18.0803 42.115 18.871C46.181 19.5884 49.5204 24.0695 48.5488 28.4272ZM39.4103 33.3776C42.9811 34.044 46.5291 31.7976 47.1643 28.0002C47.8115 24.1342 45.8137 21.0363 41.8299 20.2536C37.6744 19.4411 34.7799 22.1993 34.0699 25.462C33.3293 28.7989 35.5573 32.7061 39.4103 33.3776Z" fill="white"/>
</g>
</svg>
