<svg width="58" height="59" viewBox="0 0 58 59" fill="none" xmlns="http://www.w3.org/2000/svg">
<g opacity="0.6">
<path d="M52.1534 57.582C51.5736 57.7951 51.0279 58.0083 50.4652 58.1959C49.3653 58.571 48.3421 58.3579 47.4383 57.6928C46.3981 56.9169 45.3749 56.1069 44.3859 55.2714C42.7318 53.8731 41.1118 52.4321 39.4662 51.0167C39.0144 50.6331 38.5881 50.2664 37.8804 50.5137C37.4114 50.6842 36.9595 50.3687 36.5929 50.0533C36.1751 49.6952 35.7658 49.32 35.3651 48.9449C34.18 47.8023 32.7134 47.3675 31.1275 47.4869C29.1665 47.6318 27.2821 47.359 25.4149 46.8048C24.6219 46.5745 23.829 46.3443 23.0446 46.0715C21.0836 45.3979 19.3271 44.3748 17.8095 42.9423C15.9763 41.203 14.1772 39.438 12.8471 37.2553C10.5365 33.4611 9.4878 29.3856 10.0846 24.9348C10.5877 21.2003 12.1054 17.9177 14.3649 14.9505C16.3941 12.2989 18.9179 10.2867 22.0214 8.9992C23.7267 8.29151 25.5087 8.04425 27.3248 7.95047C30.9826 7.76289 34.4528 8.53878 37.778 10.0394C39.1507 10.6618 40.3785 11.5145 41.4614 12.5717C43.3968 14.456 44.9742 16.6047 46.2958 18.9579C47.0717 20.3392 47.7538 21.746 48.1289 23.2978C48.4274 24.5256 48.6405 25.7704 48.6149 27.0408C48.5894 28.4562 48.5382 29.8801 48.3932 31.2869C48.2824 32.4039 48.4444 33.4014 49.118 34.3052C49.4932 34.8083 49.8598 35.3198 50.2435 35.8314C50.8148 36.5988 51.1046 37.4344 50.8062 38.3808C50.6356 38.935 50.7891 39.3187 51.1558 39.762C53.1509 42.1665 54.9244 44.7243 56.3142 47.521C56.5785 48.0496 56.7661 48.6123 56.9622 49.1665C57.3544 50.2409 57.397 51.3322 56.9281 52.398C56.7575 52.7817 56.7831 53.1483 56.8343 53.5491C56.9792 54.6489 56.6211 55.6465 56.0925 56.5929C55.453 57.7355 53.7307 58.554 52.4262 57.6928C52.3665 57.6246 52.2386 57.6076 52.1534 57.582ZM40.1057 44.7158C39.867 44.4515 39.7476 44.298 39.6026 44.1701C36.6696 41.6549 33.7366 39.1396 30.812 36.6244C30.5733 36.4197 30.326 36.2151 30.1214 35.9764C29.7633 35.5501 29.9339 34.9959 30.471 34.8765C30.7694 34.8083 31.1019 34.8083 31.4089 34.8253C32.0654 34.8679 32.7219 34.9532 33.4722 35.03C33.3699 34.6974 33.3017 34.4502 33.2079 34.2029C32.9948 33.6061 32.739 33.0263 32.5599 32.4294C32.3809 31.8411 32.8072 31.3807 33.4041 31.5427C33.9668 31.6962 34.5039 31.969 35.0581 32.1737C35.331 32.276 35.6209 32.3442 36.0301 32.4721C35.996 31.8838 35.9534 31.4148 35.9534 30.9544C35.9534 30.5622 35.9449 30.1614 36.0387 29.7863C36.158 29.3088 36.7293 29.1809 37.0704 29.5476C37.3091 29.8033 37.4881 30.1188 37.7013 30.4002C39.9522 33.4441 42.1946 36.4879 44.4456 39.5318C44.6246 39.7706 44.8549 39.9582 45.0595 40.1798C46.4578 38.8583 47.4895 37.3917 48.2909 35.7803C48.2057 35.6268 48.1545 35.516 48.0863 35.4307C47.0546 34.1262 46.6028 32.6767 46.8756 31.0141C46.9268 30.7071 46.9097 30.3831 46.9523 30.0677C47.1569 28.7376 47.174 27.3904 47.0717 26.0603C46.9523 24.4829 46.6113 22.9482 45.9547 21.4902C44.7611 18.8471 43.2178 16.4341 41.1971 14.3452C39.8073 12.9042 38.2043 11.7702 36.3456 11.054C34.0947 10.1844 31.767 9.61309 29.3285 9.59603C28.3394 9.58751 27.3589 9.5875 26.3699 9.64719C25.3467 9.70687 24.3406 9.86035 23.3601 10.2014C20.8192 11.0967 18.645 12.5461 16.7863 14.4816C14.3819 16.9883 12.8216 19.964 11.9519 23.3063C11.321 25.7448 11.2101 28.226 11.7814 30.6901C12.4635 33.6487 13.7509 36.343 15.7376 38.6621C16.377 39.4125 17.0336 40.1457 17.7242 40.8534C19.1396 42.3029 20.7169 43.5477 22.6183 44.3066C24.3065 44.9716 26.0459 45.4661 27.8364 45.7901C29.1665 46.0289 30.5051 46.0118 31.8437 46.0033C33.1483 45.9948 34.3334 46.3443 35.3736 47.1458C35.5612 47.2822 35.7658 47.3931 36.0301 47.5636C37.4711 46.7792 38.733 45.7987 40.1057 44.7158ZM32.7219 36.3856C33.1482 36.7949 33.4126 37.0677 33.7025 37.3235C34.8024 38.2785 35.9193 39.2249 37.0192 40.1713C38.1788 41.1774 39.3383 42.192 40.5064 43.1896C40.7366 43.3857 41.0095 43.5221 41.2653 43.6927C42.314 42.9253 43.2263 42.1409 44.0704 41.1774C43.6612 40.6914 43.2775 40.2395 42.9023 39.7876C42.5272 39.3357 42.152 38.8753 41.7854 38.4149C41.4187 37.9545 41.0607 37.4855 40.7026 37.0081C40.353 36.5306 40.0034 36.0531 39.6623 35.5756C39.3213 35.0982 38.9802 34.6122 38.6392 34.1262C38.3066 33.6657 38.0594 33.1201 37.5308 32.6341C37.5308 33.0604 37.5563 33.3247 37.5222 33.5975C37.4625 34.1944 37.1215 34.4502 36.5502 34.2882C36.141 34.1688 35.7658 33.9301 35.3566 33.7851C35.0837 33.6913 34.8279 33.4185 34.4357 33.6402C34.6062 34.1347 34.7597 34.6207 34.9473 35.0896C35.3907 36.1725 34.6574 36.7182 33.728 36.5647C33.4637 36.5221 33.1994 36.4709 32.7219 36.3856ZM45.2812 53.8816C45.9974 52.9863 50.8745 44.3748 51.5395 42.8912C51.0023 41.8254 50.9682 41.7742 50.3629 41.4076C48.7344 43.7097 44.0704 51.5624 43.7464 52.543C44.2409 52.9693 44.7355 53.4041 45.2812 53.8816ZM48.0266 56.1837C48.3506 55.6806 48.5894 55.3225 48.8025 54.9559C49.8683 53.1654 50.9255 51.3748 51.9828 49.5758C52.5029 48.6976 53.0145 47.8109 53.5346 46.9327C53.7052 46.6513 53.816 46.3529 53.6284 46.0459C53.2703 45.4491 52.9548 44.8181 52.4176 44.1957C50.4054 47.7853 48.4359 51.3066 46.4237 54.8877C46.9608 55.314 47.4383 55.7062 48.0266 56.1837ZM54.5152 47.9047C54.3276 48.1349 54.2167 48.2372 54.14 48.3651C53.5516 49.3456 52.9634 50.3261 52.3921 51.3152C51.5651 52.7476 50.755 54.1885 49.9535 55.638C49.7915 55.9279 49.5614 56.2178 49.6466 56.5929C50.3884 56.5844 50.3969 56.61 50.8062 56.3968C52.6308 55.4504 54.0973 54.1118 55.1801 52.3639C55.5638 51.7415 55.7259 51.0423 55.5297 50.3261C55.3251 49.5246 55.0523 48.7402 54.5152 47.9047ZM37.0618 48.5271C37.3688 49.1751 37.8121 49.2859 38.3663 49.0557C38.6562 48.9363 38.9376 48.7829 39.1849 48.5953C41.6916 46.7536 44.1642 44.8693 46.3811 42.678C47.2848 41.7828 48.0522 40.7937 48.7258 39.7279C49.1265 39.0885 49.3994 38.3893 49.4249 37.6305C49.4249 37.477 49.3141 37.3235 49.2459 37.1359C46.0656 41.9362 41.7598 45.3894 37.0618 48.5271ZM40.2507 49.6099C41.0607 50.2579 41.7513 50.9315 42.638 51.4431C44.1813 49.1154 45.3408 46.6854 46.7306 44.3662C44.6161 46.08 42.5016 47.7938 40.2507 49.6099ZM55.0949 55.1435C54.5151 55.6636 54.0292 56.0984 53.4323 56.6441C54.5152 56.4054 54.6515 56.286 55.0949 55.1435Z" fill="white"/>
<path d="M14.6621 11.0372C14.0738 12.6145 13.3491 12.4696 12.4027 11.5658C11.6353 10.841 10.9959 9.98842 10.3052 9.18695C10.2285 9.10168 10.1688 8.99936 10.1091 8.88852C9.86187 8.41958 9.88746 7.96769 10.1688 7.68633C10.4672 7.38791 10.8765 7.3538 11.371 7.61811C11.6097 7.74601 11.8485 7.89948 12.0531 8.07853C12.9313 8.87147 13.801 9.66442 14.4831 10.6364C14.5513 10.7728 14.6025 10.9178 14.6621 11.0372Z" fill="white"/>
<path d="M27.6728 53.9577C27.6728 53.4461 27.6642 52.9345 27.6728 52.4229C27.6728 52.2268 27.6813 52.0307 27.7239 51.8346C27.8092 51.4765 28.082 51.2378 28.3719 51.2463C28.6703 51.2548 28.9687 51.4936 28.9858 51.8602C29.071 53.2329 29.1308 54.6142 29.1734 55.9869C29.1819 56.2001 29.0455 56.4388 28.9091 56.6179C28.6021 57.0357 28.0905 56.9845 27.8688 56.507C27.741 56.2342 27.6813 55.9102 27.6642 55.6032C27.6301 55.0576 27.6557 54.5034 27.6557 53.9491C27.6642 53.9577 27.6728 53.9577 27.6728 53.9577Z" fill="white"/>
<path d="M50.0718 8.57331C49.9269 8.95699 49.8587 9.28099 49.6882 9.53678C49.1936 10.2956 48.6565 11.0289 48.1193 11.7536C47.9829 11.9327 47.7783 12.0776 47.5737 12.197C47.2838 12.359 46.9001 12.2993 46.6954 12.0861C46.4567 11.8389 46.3714 11.5234 46.5164 11.2165C46.6272 10.9692 46.8318 10.7731 47.0024 10.5514C47.5225 9.86078 48.0426 9.17015 48.5627 8.47952C48.6565 8.35162 48.7418 8.2152 48.8441 8.10436C49.0828 7.8571 49.4921 7.75478 49.6967 7.94236C49.8843 8.11288 49.9695 8.3772 50.0718 8.57331Z" fill="white"/>
<path d="M3.17631 27.7742C2.54537 27.723 1.92294 27.7059 1.30052 27.6207C0.959465 27.5695 0.618428 27.4502 0.302956 27.3052C0.00453541 27.1773 -0.0637082 26.8618 0.0556598 26.606C0.140923 26.427 0.362613 26.2991 0.541665 26.1712C0.592822 26.1286 0.695154 26.1371 0.771891 26.1456C2.02526 26.2735 3.27011 26.3929 4.51494 26.5549C4.81336 26.5975 5.12883 26.7254 5.35904 26.913C5.49546 27.0238 5.5466 27.3393 5.50397 27.5439C5.47839 27.6718 5.22259 27.8253 5.06059 27.8338C4.42964 27.8679 3.80726 27.8509 3.17631 27.8509C3.17631 27.8253 3.17631 27.7997 3.17631 27.7742Z" fill="white"/>
<path d="M54.0194 29.9143C53.8745 29.8717 53.4908 29.8035 53.1327 29.65C52.8599 29.5392 52.7405 29.2749 52.8002 28.9679C52.8599 28.6695 53.0475 28.4649 53.3544 28.4478C54.5652 28.3796 55.7758 28.3199 56.9865 28.2773C57.14 28.2688 57.2935 28.3199 57.4384 28.3711C57.7283 28.4819 57.8903 28.7974 57.8562 29.1299C57.8306 29.4028 57.6431 29.5307 57.4044 29.6159C57.2936 29.65 57.1827 29.6927 57.0633 29.7012C56.134 29.7694 55.196 29.8376 54.0194 29.9143Z" fill="white"/>
<path d="M11.7888 44.264C11.7888 44.4089 11.7973 44.4516 11.7888 44.4857C11.4562 45.5088 10.902 46.387 10.075 47.0777C9.84476 47.2653 9.57194 47.2653 9.2991 47.1715C8.95805 47.0521 8.81308 46.7793 8.90687 46.4382C8.93245 46.3615 8.941 46.2762 8.98363 46.2165C9.54637 45.4662 10.092 44.7159 10.6718 43.9911C10.8509 43.7695 11.1408 43.6586 11.4051 43.8292C11.5926 43.9485 11.7035 44.1617 11.7888 44.264Z" fill="white"/>
<path d="M29.1409 2.21211C29.1409 1.66642 29.1153 1.11222 29.1494 0.566538C29.175 0.165802 29.4734 -0.0303053 29.8997 0.00379987C30.2323 0.0293787 30.3943 0.242535 30.4028 0.549482C30.4199 1.60674 30.4284 2.67254 30.4284 3.7298C30.4284 3.80653 30.4113 3.88326 30.3943 3.96C30.3175 4.24136 30.164 4.46306 29.84 4.48864C29.516 4.51421 29.2006 4.30958 29.1494 3.97705C29.0983 3.62748 29.1068 3.27789 29.0897 2.91979C29.0812 2.68105 29.0897 2.45084 29.0897 2.21211C29.0983 2.21211 29.1154 2.21211 29.1409 2.21211Z" fill="white"/>
</g>
</svg>
