<svg width="52" height="50" viewBox="0 0 52 50" fill="none" xmlns="http://www.w3.org/2000/svg">
<g opacity="0.35">
<path d="M13.0424 40.6138C13.2587 41.1299 13.5028 41.6879 13.7329 42.2459C14.1863 43.3479 14.6117 44.4638 15.072 45.5588C15.372 46.2702 15.1557 46.8072 14.5768 47.2536C13.8654 47.8046 13.154 48.3626 12.4357 48.9066C12.0172 49.2204 11.6685 49.1367 11.3895 48.6764C11.257 48.4602 11.1733 48.2091 11.0826 47.972C10.0852 45.3147 9.09483 42.6574 8.10444 40.0001C7.06523 37.2172 6.04695 34.4343 4.99379 31.6585C4.33121 29.9078 3.65468 28.1642 2.9084 26.4554C2.58757 25.7301 2.65731 25.1931 3.1804 24.6142C3.89878 23.833 4.58928 23.024 5.4611 22.3893C5.85865 22.1033 6.21433 22.0545 6.61886 22.2568C7.28144 22.5846 7.95102 22.9193 8.59965 23.275C10.2387 24.1748 11.8707 25.0954 13.5028 26.0021C13.6632 26.0928 13.8375 26.1695 14.2211 26.3578C13.9561 25.9672 13.8445 25.751 13.6911 25.5766C13.0076 24.8025 12.3031 24.0492 11.6196 23.275C9.53423 20.8967 7.46977 18.5044 5.37042 16.1401C3.87089 14.4522 2.33647 12.7923 0.822994 11.1254C0.544011 10.8185 0.285957 10.4976 0 10.1629C0.160415 9.91876 0.244107 9.68161 0.411497 9.56305C1.47861 8.80979 2.25977 7.76361 3.16646 6.84994C4.84733 5.14815 6.50727 3.43939 8.43923 2.0096C9.05997 1.54928 9.68071 1.06803 10.3642 0.719302C12.7216 -0.487298 14.9604 -0.124624 16.8645 1.42373C18.4059 2.67915 19.2777 4.36002 19.6264 6.285C19.752 6.98943 19.6404 7.74268 19.6404 8.51686C19.8426 8.46804 20.0519 8.41224 20.2681 8.36342C22.2279 7.86823 23.9646 8.32855 25.513 9.59792C25.8338 9.86295 26.1407 10.1559 26.4336 10.4558C27.1869 11.2369 27.7239 12.1436 27.9959 13.1968C28.0587 13.4409 28.1284 13.692 28.2261 14.0268C28.4074 13.8454 28.5469 13.7338 28.6585 13.5943C29.9837 11.8716 31.6924 10.6162 33.6314 9.68162C34.9844 9.03299 36.4491 8.76795 37.9417 8.67728C38.8274 8.62149 39.6713 8.85861 40.4664 9.23524C41.2546 9.60489 41.422 9.91875 41.2546 10.7627C41.1151 11.488 40.9547 12.2134 40.7663 12.9318C40.5501 13.7548 40.3409 13.8594 39.5318 13.7338C38.8971 13.6362 38.2555 13.5525 37.6138 13.5246C36.4072 13.4688 35.2355 13.6013 34.2103 14.3546C32.9827 15.2613 32.0412 16.3772 31.525 17.8209C30.8834 19.6343 30.9392 21.4547 31.7064 23.2053C32.6758 25.4093 34.1824 27.132 36.4909 28.0177C38.5554 28.8128 40.5292 28.6803 42.3635 27.3342C43.5841 26.4415 44.5605 25.3465 45.23 23.9864C45.4393 23.554 45.6764 23.1286 45.8717 22.6822C46.2065 21.9359 46.3739 21.1548 46.36 20.3318C46.36 20.1086 46.346 19.8784 46.353 19.6552C46.3669 19.3623 46.5413 19.181 46.8203 19.1112C46.9458 19.0833 47.0783 19.0694 47.2039 19.0624C48.1733 19.0136 49.1358 18.9438 50.1053 18.9438C50.8795 18.9438 51.1515 19.2019 51.2072 19.983C51.2491 20.5619 51.2491 21.1478 51.1863 21.7197C50.8795 24.5514 49.8054 27.0762 47.999 29.2802C46.0321 31.6794 43.5492 33.2905 40.5222 33.9949C37.5371 34.6924 34.6845 34.3088 32.0342 32.7256C31.0577 32.1397 30.2278 31.3725 29.5024 30.5007C27.8773 28.5339 26.6219 26.3648 26.1267 23.84C25.9314 22.8635 25.8896 21.8592 25.778 20.8688C25.7571 20.6944 25.7571 20.5131 25.7431 20.2202C25.5548 20.3736 25.4502 20.4364 25.3735 20.5201C23.4066 22.6752 21.2027 24.5584 18.8732 26.295C18.2524 26.7554 17.6735 27.2715 17.0807 27.7597C17.1783 28.1154 17.4852 28.1851 17.7294 28.3177C20.7772 29.9985 23.8391 31.6724 26.8939 33.3463C27.1171 33.4719 27.3473 33.5904 27.5705 33.7229C28.3586 34.1972 28.4562 35.0063 27.7588 35.627C27.159 36.164 26.5103 36.6453 25.8826 37.1475C25.3805 37.552 24.9062 37.6148 24.2924 37.273C22.7999 36.443 21.2654 35.6898 19.745 34.9086C19.6055 34.8389 19.459 34.7691 19.3335 34.7064C18.3222 35.3899 13.9282 39.5188 13.0424 40.6138ZM16.3065 26.9716C16.8924 26.5043 17.3876 26.1067 17.8967 25.7092C19.5148 24.4328 21.1818 23.2053 22.5906 21.6848C23.6438 20.555 24.7039 19.4181 25.7083 18.2464C27.0125 16.719 27.2706 14.9474 26.6568 13.0713C26.0151 11.1253 24.5435 10.0582 22.6394 9.50726C21.8095 9.27012 20.9725 9.27709 20.1635 9.577C19.7729 9.72346 19.4242 9.96061 19.0545 10.1629C18.8104 10.2954 18.5663 10.3512 18.3361 10.1629C18.113 9.98153 18.0711 9.73741 18.1478 9.4654C18.2734 9.03298 18.385 8.59359 18.5105 8.16116C18.6709 7.58925 18.6918 7.01036 18.5663 6.43844C18.3082 5.25974 17.8409 4.15776 17.0737 3.2162C15.9508 1.84918 14.5768 0.98433 12.7146 1.19357C11.9963 1.27726 11.3267 1.49348 10.7129 1.85616C9.37383 2.63731 8.15328 3.60677 6.98853 4.61808C5.45412 5.95022 3.99644 7.36606 2.65035 8.89349C2.37137 9.20735 2.04354 9.4654 1.73666 9.75833C1.61112 9.88387 1.49256 10.0164 1.37399 10.1419C6.49332 15.624 11.0965 21.4965 16.3065 26.9716ZM47.6084 20.004C47.5596 20.4434 47.5317 20.7991 47.4898 21.1478C47.2806 22.7241 46.5692 24.0911 45.7253 25.4023C44.8325 26.7832 43.6538 27.8713 42.231 28.6803C41.5266 29.0779 40.7803 29.3917 39.9643 29.4615C37.8579 29.6498 35.9399 29.1825 34.2033 27.948C33.1013 27.1669 32.2155 26.2044 31.4832 25.0954C29.3141 21.7964 29.5233 17.3397 32.4317 14.4104C33.457 13.3851 34.6217 12.6388 36.1213 12.4575C37.0628 12.3459 37.9835 12.332 38.9111 12.4505C39.1901 12.4854 39.4691 12.5063 39.8108 12.5342C39.9782 11.781 40.1317 11.0974 40.2921 10.386C39.3854 9.86295 38.4438 9.65372 37.4743 9.75136C35.7935 9.91178 34.2172 10.3512 32.7456 11.2788C29.9558 13.0294 28.24 15.5542 27.145 18.5742C27.0892 18.7207 27.0683 18.888 27.0404 19.0415C26.8172 20.1923 26.8591 21.3431 27.0125 22.5009C27.4031 25.3395 28.6166 27.7876 30.4649 29.9427C31.1833 30.7797 32.0272 31.4841 33.0106 32.0002C36.4351 33.7927 39.8875 33.6602 43.2005 31.8189C47.2387 29.5731 49.4985 26.023 50.1611 21.4547C50.2308 20.9874 50.2796 20.5061 50.1262 20.004C49.2823 19.8994 48.4872 19.9273 47.6084 20.004ZM13.991 46.2423C13.719 45.224 13.426 44.2476 13.0076 43.306C12.7216 42.6574 12.4705 41.9948 12.1706 41.3531C11.8219 40.6068 11.9405 39.9861 12.5821 39.463C12.6309 39.4212 12.6728 39.3723 12.7216 39.3235C14.3955 37.7612 16.0624 36.1919 17.7363 34.6296C18.0153 34.3646 18.3431 34.1554 18.643 33.9113C19.0685 33.5625 19.48 33.5486 19.9682 33.8345C21.1748 34.525 22.4023 35.1597 23.6229 35.8153C24.0483 36.0455 24.4738 36.2687 24.8713 36.4779C25.9803 35.9618 26.5382 35.5224 27.0125 34.7831C20.0449 30.9331 13.0843 27.0832 6.12367 23.2332C5.16815 23.8958 4.49859 24.7537 3.80811 25.5627C5.23092 29.3987 6.6398 33.172 8.03471 36.9452C9.26224 40.2721 10.4898 43.5989 11.7173 46.9258C11.801 47.156 11.9265 47.3722 12.059 47.6512C12.7495 47.156 13.44 46.8281 13.991 46.2423Z" fill="white"/>
<path d="M10.3852 15.7141C10.0923 15.4909 9.85517 15.3723 9.7087 15.184C8.41841 13.5241 6.87703 12.0943 5.43329 10.5808C4.73584 9.85543 4.77071 9.48579 5.52396 8.85808C6.93283 7.67937 8.3347 6.4937 9.75751 5.32895C10.4061 4.79191 11.1315 4.36646 11.9406 4.10143C13.0635 3.73875 14.1166 3.85731 15.0373 4.61754C15.5325 5.02206 15.9928 5.48239 16.4182 5.96364C16.8576 6.4658 17.0181 7.09352 16.9692 7.76307C16.8995 8.61397 16.6763 9.40906 16.1532 10.1065C15.8812 10.4692 15.6371 10.8528 15.3093 11.1597C13.7121 12.6592 12.094 14.1378 10.3852 15.7141ZM10.183 14.2634C11.264 13.2869 12.2823 12.3942 13.2588 11.4666C13.8446 10.9156 14.3956 10.3227 14.9187 9.70897C15.4767 9.05336 15.8045 8.28616 15.7556 7.40039C15.7417 7.14931 15.6929 6.87033 15.5604 6.66806C15.1907 6.09615 14.7164 5.62885 14.0678 5.33592C13.3773 5.02904 12.7008 4.97325 12.0312 5.3429C11.5221 5.62188 10.999 5.88691 10.5387 6.23564C9.4088 7.08654 8.30681 7.97928 7.19786 8.85808C6.8282 9.15101 6.47249 9.47184 6.05402 9.82057C7.44196 11.3131 8.77411 12.7499 10.183 14.2634Z" fill="white"/>
<path d="M23.6903 15.6313C23.6484 16.3846 23.3973 17.096 22.9022 17.6539C21.2143 19.558 19.5195 21.4621 17.462 22.9965C17.3574 23.0732 17.2597 23.1638 17.1481 23.2266C16.8692 23.3801 16.5902 23.3382 16.353 23.1081C16.2624 23.0174 16.1926 22.9058 16.1089 22.8082C14.993 21.469 13.8701 20.1369 12.7612 18.7978C12.4543 18.4281 12.1544 18.0445 11.8823 17.647C11.6661 17.3331 11.6661 17.1169 11.9381 16.8588C13.1657 15.6732 14.2677 14.355 15.7184 13.4064C16.2554 13.0507 16.7785 12.6741 17.3155 12.3114C18.0479 11.8232 18.829 11.4536 19.7497 11.5373C19.8752 11.5512 20.0077 11.5512 20.1333 11.5791C21.7723 11.9069 23.4671 13.7412 23.6833 15.4221C23.6763 15.4918 23.6833 15.5546 23.6903 15.6313ZM17.0156 22.1107C17.7619 21.4272 18.4873 20.7925 19.1708 20.116C20.203 19.0977 21.2352 18.0794 22.114 16.9146C22.679 16.1614 22.679 15.3733 22.2884 14.5503C21.9397 13.8109 21.312 13.3646 20.6145 13.0089C19.8752 12.6392 19.122 12.6183 18.3826 12.9949C16.2973 14.069 14.5327 15.5476 12.9634 17.2773C13.9608 18.735 16.2833 21.5248 17.0156 22.1107Z" fill="white"/>
<path d="M17.004 32.753C16.8855 32.9414 16.7948 33.1506 16.6414 33.304C16.0067 33.9457 15.372 34.5874 14.7094 35.2011C13.8097 36.0311 12.889 36.8401 11.9823 37.6562C11.9126 37.7189 11.8429 37.7887 11.7661 37.8445C11.4035 38.1026 11.1035 38.0049 10.9362 37.5795C10.4479 36.3171 9.96671 35.0547 9.47152 33.7992C8.71826 31.8812 7.95105 29.9702 7.1978 28.0522C7.11411 27.843 7.02345 27.6337 6.98857 27.4175C6.91883 26.9223 7.3094 26.6154 7.76972 26.7968C7.97896 26.8805 8.17424 26.9921 8.36952 27.1106C11.0268 28.7566 13.6772 30.4026 16.3275 32.0556C16.4879 32.1532 16.6483 32.2718 16.7878 32.3974C16.8715 32.4811 16.9134 32.6066 17.004 32.753ZM11.5639 36.4705C13.5516 34.8664 14.9256 33.5551 15.3581 32.8228C13.1332 31.3302 10.8385 29.9423 8.57877 28.4707C8.52298 28.5962 8.4602 28.666 8.48112 28.7078C9.44361 31.2954 10.448 33.855 11.5639 36.4705Z" fill="white"/>
</g>
</svg>
